<svg xmlns="http://www.w3.org/2000/svg" viewBox="0 0 500 500"><path fill="#ebebeb" d="M0 382.4h500v.25H0zm416.78 16.09h33.12v.25h-33.12zm-94.25 2.72h8.69v.25h-8.69zm74.06-12h19.19v.25h-19.19zm-344.13 1.68h43.19v.25H52.46zm52.1 0h6.33v.25h-6.33zm26.91 4.22h93.68v.25h-93.68zM237 337.8H43.91a5.71 5.71 0 01-5.7-5.71V60.66a5.71 5.71 0 015.7-5.66H237a5.71 5.71 0 015.71 5.71v271.38a5.71 5.71 0 01-5.71 5.71zM43.91 55.2a5.46 5.46 0 00-5.45 5.46v271.43a5.46 5.46 0 005.45 5.46H237a5.47 5.47 0 005.46-5.46V60.66A5.47 5.47 0 00237 55.2zm409.4 282.6h-193.1a5.72 5.72 0 01-5.71-5.71V60.66a5.72 5.72 0 015.71-5.66h193.1a5.71 5.71 0 015.69 5.66v271.43a5.71 5.71 0 01-5.69 5.71zM260.21 55.2a5.47 5.47 0 00-5.46 5.46v271.43a5.47 5.47 0 005.46 5.46h193.1a5.47 5.47 0 005.46-5.46V60.66a5.47 5.47 0 00-5.46-5.46z"/><path fill="#e6e6e6" d="M302.88 382.4h-35.1V251.67h35.1z"/><path fill="#f0f0f0" d="M273.62 382.4h-5.84v-11.77h11.97l-6.13 11.77z"/><path fill="#e6e6e6" d="M445.74 382.4h-35.1V251.67h35.1z"/><path fill="#f0f0f0" d="M415.74 377.88H267.78V251.67h147.96z"/><path fill="#e6e6e6" d="M411.21 291.87H272.32v-34.61h138.89z"/><path d="M335.2 268h13.12c5.7 0 11.15-4.27 15.07-11.81h-43.26c3.92 7.56 9.37 11.81 15.07 11.81zm74.7 114.4h5.84v-11.77h-11.97l6.13 11.77z" fill="#f0f0f0"/><path fill="#e6e6e6" d="M411.21 332.08H272.32v-34.61h138.89z"/><path d="M335.2 308.22h13.12c5.7 0 11.15-4.27 15.07-11.81h-43.26c3.92 7.59 9.37 11.81 15.07 11.81z" fill="#f0f0f0"/><path fill="#e6e6e6" d="M411.21 372.29H272.32v-34.61h138.89z"/><path d="M335.2 348.43h13.12c5.7 0 11.15-4.27 15.07-11.81h-43.26c3.92 7.54 9.37 11.81 15.07 11.81z" fill="#f0f0f0"/><path fill="#e6e6e6" d="M212.03 222.02H77.99V86.39h134.04z"/><path fill="#f0f0f0" d="M209.56 222.02H68.68V86.39h140.88z"/><path fill="#fff" d="M197.77 98.19v112.03H80.5V98.19z"/><path d="M138.32 113l-21.52 21.56a27.81 27.81 0 000 39.28l21.52 21.53a1.13 1.13 0 001.6 0l21.53-21.53a27.81 27.81 0 000-39.28L139.93 113a1.15 1.15 0 00-1.61 0zm-19.92 59.2a25.54 25.54 0 010-36.07zm41.45 0v-36.03a25.54 25.54 0 010 36.07z" fill="#f0f0f0"/><path fill="#e6e6e6" d="M406.85 205h-74.89l-4.27 44.22h74.89l4.27-44.22zm-4.27 44.22l-.3 2.45h-74.9l.31-2.45h74.89z"/><path fill="#f0f0f0" d="M404.55 205h-74.89l-4.28 44.22h74.89l4.28-44.22z"/><path d="M398.76 246.34l3.13-38.34a.94.94 0 00-.93-1h-68.85a.94.94 0 00-.94.86L328 246.19a.94.94 0 00.94 1h68.85a.93.93 0 00.97-.85z" fill="#fff"/><path fill="#f0f0f0" d="M380.76 249.22l-.3 2.45h-82.47l.3-2.45h82.47z"/><path fill="#e6e6e6" d="M420.72 181.36H280.09V87.87h140.63z"/><path fill="#f5f5f5" d="M417.6 181.36H276.97V87.87H417.6z"/><path fill="#fff" d="M411.99 94.18v80.88H282.58V94.18z"/><path fill="#e6e6e6" d="M284.93 94.17v80.88h-2.36V94.17z"/><path fill="#f5f5f5" d="M415.28 164.33H279.29v-8.46h135.99z"/><path d="M270.85 77.45h156a.87.87 0 01.86.86.86.86 0 01-.86.86h-156a.86.86 0 01-.87-.86.87.87 0 01.87-.86z" fill="#e6e6e6"/><path d="M267.83 78.31a2.16 2.16 0 102.17-2.16 2.16 2.16 0 00-2.17 2.16zm151.72 4.84a1.17 1.17 0 001.17-1.15v-2.5a1.17 1.17 0 00-1.17-1.17 1.16 1.16 0 00-1.16 1.17V82a1.17 1.17 0 001.16 1.15zm-135.68 0A1.18 1.18 0 00285 82v-2.5a1.17 1.17 0 00-1.17-1.17 1.16 1.16 0 00-1.16 1.17V82a1.17 1.17 0 001.2 1.15z" fill="#e6e6e6"/><path fill="#e0e0e0" opacity=".4" d="M415.28 169.14H271.13V78.31h144.15z"/><path d="M403.51 78.31a2.16 2.16 0 102.16-2.16 2.16 2.16 0 00-2.16 2.16z" fill="#e6e6e6"/><path fill="#f0f0f0" d="M211.06 375.92H199.5V275.65h11.56z"/><path fill="#f0f0f0" d="M206.62 382.27H74.1v-6.35h132.52z"/><path fill="#f5f5f5" d="M69.66 275.65H199.5v100.27H69.66z"/><rect x="78.75" y="287.99" width="111.66" height="32.88" rx="7.12" fill="#f0f0f0"/><rect x="78.75" y="330.69" width="111.66" height="32.88" rx="7.12" fill="#f0f0f0"/><path d="M110.39 306.69h48.38a2.26 2.26 0 002.26-2.25 2.27 2.27 0 00-2.26-2.26h-48.38a2.27 2.27 0 00-2.26 2.26 2.26 2.26 0 002.26 2.25zm0 42.7h48.38a2.26 2.26 0 002.26-2.25 2.27 2.27 0 00-2.26-2.26h-48.38a2.27 2.27 0 00-2.26 2.26 2.26 2.26 0 002.26 2.25z" fill="#f5f5f5"/><ellipse cx="250" cy="416.24" rx="193.89" ry="11.32" fill="#f5f5f5"/><path fill="#263238" d="M292.85 101.45h-184.8l14.36 251.67H307.2l-14.35-251.67z"/><path fill="#407bff" d="M296.44 101.45h-184.8L126 353.12h184.8l-14.36-251.67z"/><path d="M283.71 109.91H120.09l11.73 227.81h167.87z" opacity=".5"/><path d="M120.09 109.91c12.16 75.94 3.82 151.88 16 227.81h167.85c-12.16-75.93-3.82-151.87-16-227.81z" fill="#fff"/><path d="M154.41 178.17A14.47 14.47 0 01168.75 192a13.14 13.14 0 01-13.26 13.69 14.34 14.34 0 01-14.21-13.77 13.23 13.23 0 013.63-9.69 13.05 13.05 0 019.5-4m-.1-2.89a15.85 15.85 0 00-15.93 16.63 17.31 17.31 0 0017.15 16.63 16 16 0 0016.12-16.63 17.47 17.47 0 00-17.34-16.63z" fill="#407bff" opacity=".3"/><path d="M247.22 302.92h-53a2.79 2.79 0 00-2.82 3.1 3.51 3.51 0 003.41 3.11h53a2.77 2.77 0 002.8-3.11 3.49 3.49 0 00-3.39-3.1zm28.35-13.05h-82.42a2.83 2.83 0 00-2.87 3.1 3.4 3.4 0 003.34 3.11H276a2.83 2.83 0 002.9-3.08 3.39 3.39 0 00-3.33-3.13z" fill="#e0e0e0"/><path d="M156.1 232a14.26 14.26 0 0114.15 13.77 13.26 13.26 0 01-3.69 9.69 13.1 13.1 0 01-9.54 4 14.35 14.35 0 01-14.24-13.77A13.24 13.24 0 01156.1 232m0-2.9a16.09 16.09 0 00-16.18 16.63 17.33 17.33 0 0017.22 16.64 16 16 0 0016.05-16.64 17.21 17.21 0 00-17.09-16.63z" fill="#407bff" opacity=".3"/><path d="M217.8 188.49h-28.35a3.25 3.25 0 01-3.22-3.11 3 3 0 013-3.1h28.34a3.27 3.27 0 013.24 3.1 3 3 0 01-3.01 3.11zm32.72 0h-19.2a3.26 3.26 0 01-3.23-3.11 3 3 0 013-3.1h19.21a3.26 3.26 0 013.23 3.1 3 3 0 01-3.01 3.11zM266 201.54h-76.1a3.23 3.23 0 01-3.21-3.11 3 3 0 013-3.1h76.09a3.22 3.22 0 013.2 3.1 3 3 0 01-2.98 3.11z" fill="#e0e0e0"/><path d="M158.27 285.76a15.16 15.16 0 0114.8 13.78 12.65 12.65 0 01-3.11 9.68 12.21 12.21 0 01-9.26 4 15.44 15.44 0 01-15.1-13.77 12.48 12.48 0 013.26-9.69 12.66 12.66 0 019.41-4m-.14-2.89a15.2 15.2 0 00-15.43 16.63c.77 9.18 9.1 16.63 18.28 16.63s15.76-7.45 15-16.63a18.24 18.24 0 00-17.84-16.63z" fill="#407bff" opacity=".3"/><path d="M279 249.13h-87.81a3 3 0 00-3 3.1 3.24 3.24 0 003.21 3.1h87.85a3 3 0 003-3.1 3.22 3.22 0 00-3.25-3.1zm-20.81-13.06h-67.38a3 3 0 00-3 3.11 3.21 3.21 0 003.19 3.1h67.39a3 3 0 003-3.1 3.2 3.2 0 00-3.2-3.11z" fill="#e0e0e0"/><path d="M155.93 201.72l-1.18-1.94c-2.59-4.23-8-8-9.86-9.11l1.4-2.48a38.24 38.24 0 019.68 8.36c4.25-5.71 10.46-11.58 18.87-17.92l1.81 2.34c-9 6.77-15.38 13-19.47 18.93-.41.61-.83 1.22-1.25 1.82zm1.5 53.8c-.39-.65-.79-1.3-1.19-1.94-2.6-4.23-8-8-9.84-9.12l1.42-2.48a38.34 38.34 0 019.63 8.36c4.26-5.7 10.52-11.58 19.06-17.92l1.77 2.34c-9.12 6.77-15.54 13-19.61 18.93zm3.43 53.92l-1.32-1.94c-2.88-4.23-8.46-8-10.38-9.11l1.3-2.48a42.05 42.05 0 0110.09 8.35c3.92-5.7 9.88-11.58 18.16-17.91l1.87 2.34c-8.84 6.77-14.91 13-18.6 18.93zM224.1 129q-2.64 5.76-5.41 11.51a24.75 24.75 0 0113.64 20.08h13.29C244.74 147 236 135.17 224.1 129z" fill="#407bff"/><path d="M173.47 160.61h13.29a21.17 21.17 0 019.24-19.37q-3.88-5.76-7.88-11.52c-9.7 6.28-15.5 17.79-14.65 30.89z" fill="#263238"/><path d="M206.12 124.54a32.74 32.74 0 00-18 5.18q4 5.76 7.88 11.52a21 21 0 0111.66-3.42 24.25 24.25 0 0111 2.71q2.76-5.76 5.41-11.51a39.2 39.2 0 00-17.95-4.48z" fill="#407bff"/><path d="M206.12 124.54a32.74 32.74 0 00-18 5.18q4 5.76 7.88 11.52a21 21 0 0111.66-3.42 24.25 24.25 0 0111 2.71q2.76-5.76 5.41-11.51a39.2 39.2 0 00-17.95-4.48z" fill="#263238" opacity=".5"/><path d="M222.36 151.51S208.94 157 207.52 158a3.19 3.19 0 00-.57 4.53 3.35 3.35 0 004.58.87c1.47-1.06 10.85-11.89 10.83-11.89zm-14.1 10a1.57 1.57 0 01.28-2.23 1.67 1.67 0 012.26.43 1.57 1.57 0 01-.28 2.23 1.67 1.67 0 01-2.26-.39z" fill="#263238"/><path d="M238.27 145.16a4.26 4.26 0 01-4.32 4.72 5.25 5.25 0 01-5.12-4.72 4.23 4.23 0 014.28-4.71 5.28 5.28 0 015.16 4.71z" fill="#fff"/><path d="M232.42 144.08a.68.68 0 01-.68.75.83.83 0 01-.82-.75.67.67 0 01.68-.75.83.83 0 01.82.75zm3.58 0a.68.68 0 01-.69.75.85.85 0 01-.82-.75.67.67 0 01.69-.75.83.83 0 01.82.75zm-2.23 3.92a4 4 0 01-2.67-1.05.37.37 0 010-.52.36.36 0 01.52 0 3.25 3.25 0 002.17.86 2.66 2.66 0 002-.84.37.37 0 11.54.51 3.38 3.38 0 01-2.56 1.04z" fill="#263238"/><path d="M211.62 131.1a4.15 4.15 0 01-4.2 4.72 5.41 5.41 0 01-5.24-4.72 4.1 4.1 0 014.16-4.71 5.46 5.46 0 015.28 4.71z" fill="#fff"/><path d="M205.74 130a.66.66 0 01-.66.75.87.87 0 01-.84-.75.65.65 0 01.66-.75.86.86 0 01.84.75zm3.57 0a.66.66 0 01-.67.75.88.88 0 01-.84-.75.66.66 0 01.67-.75.87.87 0 01.84.75zm.1 3h-4.68a.38.38 0 010-.75h4.68a.38.38 0 010 .75z" fill="#263238"/><path d="M187.87 145.16a4.26 4.26 0 01-4.32 4.72 5.25 5.25 0 01-5.12-4.72 4.23 4.23 0 014.28-4.71 5.29 5.29 0 015.16 4.71z" fill="#fff"/><path d="M182 144.08a.68.68 0 01-.68.75.83.83 0 01-.82-.75.67.67 0 01.68-.75.83.83 0 01.82.75zm3.58 0a.67.67 0 01-.68.75.85.85 0 01-.82-.75.67.67 0 01.68-.75.82.82 0 01.82.75zM181 148a.35.35 0 01-.25-.1.37.37 0 010-.52 3.43 3.43 0 012.53-1.08 4 4 0 012.67 1.06.36.36 0 010 .52.39.39 0 01-.53 0 3.2 3.2 0 00-2.18-.86 2.68 2.68 0 00-2 .83.39.39 0 01-.24.15zm75.74-37.44c-3.12-6.57-10.4-10.92-18.25-10.92h-16a6.24 6.24 0 01-5.55-2.9c-2.23-4.18-7.55-7.16-13.59-7.16s-11 3-12.76 7.16c-.73 1.76-2.82 2.9-5.22 2.9h-16c-7.85 0-14.64 4.35-17 10.92a1.62 1.62 0 00-.1.72 2 2 0 002 1.9h100.88a1.79 1.79 0 001.59-2.62zM204 101.45a4.78 4.78 0 01-4.67-4.45 4.16 4.16 0 014.2-4.45 4.77 4.77 0 014.71 4.45 4.16 4.16 0 01-4.24 4.45z" fill="#263238"/><path d="M360.42 409.11a3.2 3.2 0 01-2.22-.55.69.69 0 01-.07-.76.74.74 0 01.51-.41c1.18-.33 3.91 1.13 4 1.2a.17.17 0 01.1.18.15.15 0 01-.12.14 12.92 12.92 0 01-2.2.2zm-1.32-1.42a1.11 1.11 0 00-.33 0 .45.45 0 00-.32.24c-.1.22 0 .33 0 .39.4.47 2.26.48 3.6.29a8.65 8.65 0 00-2.95-.92z" fill="#407bff"/><path d="M362.62 408.91h-.07c-.93-.4-2.87-2-2.83-2.82 0-.2.12-.44.6-.49a1.42 1.42 0 011 .3 5.65 5.65 0 011.46 2.83.18.18 0 010 .16.17.17 0 01-.16.02zm-2.13-3h-.1c-.31 0-.32.15-.32.19 0 .5 1.31 1.75 2.28 2.29a4.66 4.66 0 00-1.23-2.26 1 1 0 00-.63-.2z" fill="#407bff"/><path fill="#ffc3bd" d="M370.68 408.74h-7.35l-2.63-17.02h7.35l2.63 17.02z"/><path d="M363.28 407.89h8a.74.74 0 01.68.5l2.18 6.53a1 1 0 01-.91 1.3c-2.9 0-7.1-.21-10.74-.21-4.25 0-3.87.23-8.86.23-3 0-4.19-3.05-3-3.33 5.61-1.25 6.26-1.39 10.88-4.45a3.09 3.09 0 011.77-.57z" fill="#263238"/><path opacity=".2" d="M360.7 391.73l1.36 8.77h7.35l-1.36-8.77h-7.35z"/><path d="M369.84 225.45l-5 5.05 7.66 2.71s3-4.12.89-6.94z" fill="#ffc3bd"/><path fill="#ffc3bd" d="M363.16 237.56l7.65 1.12 1.71-5.47-7.66-2.71-1.7 7.06z"/><path d="M373.18 163.27c.65 1.4 1.17 2.59 1.69 3.89s1 2.55 1.5 3.83c.95 2.57 1.8 5.19 2.59 7.84a82.8 82.8 0 012 8.15l.38 2.1.31 2.14c.11.71.18 1.45.24 2.18s.16 1.39.16 2.31v2.45l-.06 1.13-.11 1.07c-.13 1.44-.32 2.79-.5 4.16-.4 2.7-.86 5.34-1.37 8-1.06 5.23-2.22 10.34-3.62 15.49l-9.11-1.8c.58-5.08 1.18-10.24 1.66-15.32.23-2.54.48-5.07.62-7.55.06-1.22.13-2.46.13-3.63v-2.5l-.07-.66a15 15 0 00-.22-1.57c-.09-.56-.17-1.12-.3-1.69l-.37-1.71-.43-1.72c-.62-2.3-1.32-4.61-2.12-6.92s-1.69-4.61-2.63-6.89c-.46-1.15-.94-2.29-1.44-3.41s-1-2.29-1.49-3.26z" fill="#263238"/><path d="M338.65 221.87s1.22 56.24 4.52 78.64c3.44 23.3 16 98.29 16 98.29h12.44s-4.46-71.37-5.88-94.3c-1.55-25-1.21-82.63-1.21-82.63z" fill="#407bff"/><path d="M356.18 393.84c-.06 0 1.28 5.17 1.28 5.17h15.14l-.11-4.61z" fill="#263238"/><ellipse cx="335.11" cy="130.65" rx="1.13" ry=".74" transform="rotate(-86.48 335.111 130.653)" fill="#263238"/><path d="M335.54 131.78a23.2 23.2 0 01-3.16 5.32 3.52 3.52 0 002.95.56z" fill="#ed847e"/><path d="M338.18 127.2a.43.43 0 01-.22-.06 2.82 2.82 0 00-2.57-.48.36.36 0 01-.47-.21.37.37 0 01.23-.47 3.55 3.55 0 013.26.56.37.37 0 01.07.51.38.38 0 01-.3.15z" fill="#263238"/><path d="M355.3 137.52c-1.24 5.38-2.64 15.23 1 18.81 0 0-1.66 5.45-11.65 5.45-11 0-5.05-5.45-5.05-5.45 6-1.43 6.05-5.87 5.15-10.05z" fill="#ffc3bd"/><path d="M360.17 158.85c1.08-2.19 2.27-4.71 0-5.49-2.48-.87-16.19-1.75-21-.13a5 5 0 00-3.61 6.08z" fill="#407bff"/><path d="M370.69 158.44c6.33 2.92 9.55 25.06 9.55 25.06l-12.75 4a129.49 129.49 0 01-5.53-18c-1.96-9.24 2.25-14.04 8.73-11.06z" fill="#263238"/><path d="M292.33 192.89l-5.88-5.06-5.29 7.7s4.75 3.81 10 2.25z" fill="#ffc3bd"/><path fill="#ffc3bd" d="M278.7 185.38l-.81 7.61 3.27 2.54 5.29-7.7-7.75-2.45zm77.95-56.05c-.74 7.64-.79 12.14-4.79 16.06a10 10 0 01-16.86-5.23c-1.4-6.86 0-18.2 7.63-21.24a10.09 10.09 0 0114.02 10.41z"/><path d="M341 131.78c-.67-5.28-.56-7.28 2.26-8.45-2.93-.58-5.47-.66-6.68-2.37s-1.5-6.08 4.38-8.08c-.54 1 1.17 3.08 6.58 1.2s13.29-2.08 14 3.42c2.86-1 7.65 7.83 2 14.28-4.71 5.4-7.85 9.13-8.78 12a1 1 0 01-1.37.6c-1.95-.91-5.44-.13-7 .29a1 1 0 01-1.14-.51c-1.01-2.08-3.74-8.02-4.25-12.38z" fill="#263238"/><path d="M360.48 118.17s2.32-3.27 6.77-.84a20.16 20.16 0 00-6.77.84z" fill="#263238"/><path d="M360.86 118.87s3.23-2 .71-5.77a14.53 14.53 0 01-.71 5.77z" fill="#263238"/><path d="M344.74 132a9.15 9.15 0 01-2.68 4.95c-1.85 1.75-3.45.51-3.5-1.74-.05-2 .85-5.38 3-6.28s3.56.81 3.18 3.07z" fill="#ffc3bd"/><path d="M339.68 253.12c.72 16.78 1.85 36.26 3.49 47.39.63 4.24 1.55 10.18 2.65 17.07 4.42-24.12 7.06-55.2-6.14-64.46z" opacity=".3"/><path d="M334.17 409.11c-.94 0-1.85-.13-2.14-.55a.68.68 0 010-.76 1 1 0 01.57-.41c1.23-.33 3.75 1.13 3.86 1.2a.15.15 0 01.07.18.18.18 0 01-.14.14 13.43 13.43 0 01-2.22.2zm-1.11-1.42a1.18 1.18 0 00-.34 0 .53.53 0 00-.35.24c-.13.22-.09.33-.05.39.33.47 2.18.48 3.56.29a7.61 7.61 0 00-2.82-.92z" fill="#407bff"/><path d="M336.4 408.91h-.07c-.87-.4-2.58-2-2.41-2.82 0-.2.18-.44.66-.49a1.29 1.29 0 011 .3c.91.77 1 2.75 1 2.83a.21.21 0 01-.08.16.19.19 0 01-.1.02zm-1.69-3h-.1c-.32 0-.34.15-.35.19-.1.5 1.05 1.75 1.94 2.29a4 4 0 00-.89-2.26.92.92 0 00-.6-.2z" fill="#407bff"/><path fill="#ffc3bd" d="M344.48 408.74h-7.34l-.14-17.02h7.35l.13 17.02z"/><path d="M337.21 407.89h8a.6.6 0 01.6.5l1.23 6.53a1.11 1.11 0 01-1.11 1.3c-2.89 0-7.07-.21-10.7-.21-4.26 0-7.94.23-12.93.23-3 0-3.74-3.05-2.47-3.33 5.79-1.25 10.49-1.39 15.56-4.45a3.57 3.57 0 011.82-.57z" fill="#263238"/><path opacity=".2" d="M337.01 391.73l.06 8.77h7.35l-.06-8.77h-7.35z"/><path d="M325.54 221.87s-3 54.93-2.94 77.33c0 23.3 11.8 99.6 11.8 99.6h12.44S343.6 323.86 345 301c1.49-25 8.71-79.11 8.71-79.11z" fill="#407bff"/><path d="M332.18 393.84c-.06 0 .51 5.17.51 5.17h15.14l.58-4.61zm-3.96-235.47s-12.52 31.63-7.07 86.3h45.72c.48-6-4.3-58.26 2.52-86.68a101.36 101.36 0 00-13.1-1.66 145.28 145.28 0 00-16.7 0 74.84 74.84 0 00-11.37 2.04z" fill="#263238"/><path d="M321.75 187c-.68 5-1.24 10.71-1.6 17 8.88-8.16 11.92-28.49 11.92-28.49z" opacity=".2"/><path d="M332.93 173.43c-1.8 4.68-3.62 9.19-5.62 13.72s-4.07 9-6.4 13.48l-.91 1.67-.46.84c-.19.34-.17.36-.69 1.23a9.78 9.78 0 01-3.61 3.36 10.76 10.76 0 01-3.91 1.18 16.46 16.46 0 01-5.6-.45 31 31 0 01-4.24-1.38 55.15 55.15 0 01-7.17-3.6c-1.13-.65-2.21-1.35-3.28-2s-2.04-1.48-3.19-2.28l5.4-8.28a70.26 70.26 0 0012.15 5.27 18.34 18.34 0 002.73.62 3.84 3.84 0 001.6 0c.06 0-.13-.06-.46.11a2.69 2.69 0 00-1 .88c-.21.35.06-.17.15-.37l.36-.79.72-1.57c1.9-4.24 3.66-8.63 5.37-13s3.37-8.93 4.9-13.34z" fill="#263238"/><path d="M337.9 161.69c2.34 6.54-14.22 32.87-14.22 32.87l-9.82-9.73s2.51-8.27 5.82-18.23c3.26-9.79 15.99-11.16 18.22-4.91z" fill="#263238"/></svg>