<svg xmlns="http://www.w3.org/2000/svg" viewBox="0 0 500 500"><ellipse cx="251.72" cy="350.29" rx="235.28" ry="124.1" fill="#f5f5f5"/><path d="M400.74 309.58c-16.3 9.41-16.3 24.66 0 34.07s42.71 9.41 59 0 16.29-24.66 0-34.07-42.74-9.41-59 0z" fill="#e6e6e6"/><ellipse cx="366.08" cy="381.84" rx="64.58" ry="37.28" fill="#e0e0e0"/><path d="M57 411.58l6.6 3.81a8.35 8.35 0 007.54 0l145.52-84c2.08-1.2 2.08-3.15 0-4.35l-6.61-3.81a8.26 8.26 0 00-7.53 0L57 407.23c-2.07 1.2-2.07 3.15 0 4.35zm37 8.05l6.6 3.81a8.35 8.35 0 007.54 0L232.33 352c2.08-1.2 2.08-3.15 0-4.35l-6.6-3.82a8.35 8.35 0 00-7.54 0L94 415.28c-2.06 1.2-2.06 3.15 0 4.35z" fill="#e0e0e0"/><path fill="#fafafa" d="M454.46 111.28l-1.75 1.04-35.76-20.64 1.74-1.04 35.77 20.64z"/><path fill="#fff" d="M418.69 90.64l34.02 19.63V74.65l-34.02-19.63v35.62z"/><path d="M413.66 93.57L456 118V72.75l-42.34-24.44zM417 54l35.76 20.65v37.67L417 91.68z" fill="#f0f0f0"/><path fill="#e0e0e0" d="M416.95 91.68l1.74-1.04V55.02L416.95 54v37.68z"/><path fill="#fafafa" d="M413.66 48.3l1.77-1.01 42.34 24.45-1.77 1.01-42.34-24.45z"/><path fill="#e0e0e0" d="M457.77 71.74L456 72.75v45.27l1.77-1.01V71.74z"/><g fill="#f0f0f0"><path d="M420.02 89.57l31.37 18.11v-9.05l-7.85-18.11-4.88 4.53 1.76 7.59-10.83-23.17-9.57 11.05v9.05z"/><path d="M439 71.78a5.07 5.07 0 012.32 4c0 1.48-1 2.08-2.32 1.34a5.12 5.12 0 01-2.31-4c-.05-1.48.98-2.12 2.31-1.34z"/></g><path fill="#fafafa" d="M454.46 168.16l-1.75 1.04-35.76-20.65 1.74-1.04 35.77 20.65z"/><path fill="#fff" d="M418.69 147.51l34.02 19.64v-35.63l-34.02-19.62v35.61z"/><path d="M413.66 150.45L456 174.89v-45.27l-42.34-24.44zm3.34-39.58l35.76 20.65v37.68L417 148.55z" fill="#f0f0f0"/><path fill="#e0e0e0" d="M416.95 148.55l1.74-1.04V111.9l-1.74-1.03v37.68z"/><path fill="#fafafa" d="M413.66 105.18l1.77-1.02 42.34 24.45-1.77 1.01-42.34-24.44z"/><path fill="#e0e0e0" d="M457.77 128.61l-1.77 1.01v45.27l1.77-1.01v-45.27z"/><g fill="#f0f0f0"><path d="M420.02 146.44l31.37 18.11v-9.05l-7.85-18.11-4.88 4.53 1.76 7.59-10.83-23.16-9.57 11.04v9.05z"/><path d="M439 128.65a5.1 5.1 0 012.32 4c0 1.48-1 2.08-2.32 1.34a5.11 5.11 0 01-2.31-4c-.05-1.48.98-2.08 2.31-1.34z"/></g><path d="M66.6 400.74c2.47-13.73 3.63-28.95-1-50.35-3.88-18-13.64-33.45-24.88-35.49-4.56-.83-9.24 1.82-10.4 4.6-3.18 7.65 2.66 14.62 5.38 18.1 2 2.6 20.87 21.08 22.45 49.2l.94 16.82c.14.87.9 1.31 1.5.87z" fill="#407bff"/><path d="M66.6 400.74c2.47-13.73 3.63-28.95-1-50.35-3.88-18-13.64-33.45-24.88-35.49-4.56-.83-9.24 1.82-10.4 4.6-3.18 7.65 2.66 14.62 5.38 18.1 2 2.6 20.87 21.08 22.45 49.2l.94 16.82c.14.87.9 1.31 1.5.87z" fill="#fff" opacity=".3"/><path d="M63.51 394.42a.66.66 0 01-.35-.64c.67-35.82-9.84-58.21-25-70.87A.76.76 0 0138 322a.43.43 0 01.69-.19c15.37 12.81 26.16 35.7 25.47 72a.58.58 0 01-.51.64z" fill="#fff"/><path d="M60.59 404.49c-1.68 1.19-2.6-1.26-3.44-4.07-2.69-9.06-5.65-13.84-10.7-20.2-6.23-7.83-17-15.06-18.22-21.54-1.08-5.88 3.65-10.41 12.07-7.27 10.11 3.78 23.77 16 23.31 51.19z" fill="#407bff"/><path d="M61.31 400a.64.64 0 01-.4-.51c-4.77-27.15-19.84-40.62-26.81-43.29a.72.72 0 01-.37-.81c.07-.34.33-.54.61-.43 7.72 2.94 22.68 16.58 27.56 44.3a.63.63 0 01-.38.75.3.3 0 01-.21-.01z" fill="#fff"/><path d="M400.45 280.62a1.07 1.07 0 01.63-.87 3.35 3.35 0 013 0 1.07 1.07 0 01.62.87l-7.6 44.87a.76.76 0 01-.44.6 2.35 2.35 0 01-2.13 0 .74.74 0 01-.44-.6zm58.61 0a1.07 1.07 0 00-.63-.87 3.33 3.33 0 00-3 0 1.07 1.07 0 00-.63.87l7.6 44.87a.76.76 0 00.44.6 2.37 2.37 0 002.14 0 .78.78 0 00.44-.6zM432.15 284a1.07 1.07 0 00-.63-.87 3.33 3.33 0 00-3 0 1.07 1.07 0 00-.63.87l.63 53.38a.76.76 0 00.44.6 2.35 2.35 0 002.13 0 .74.74 0 00.44-.6z" fill="#455a64"/><path d="M468.27 265.84c0-5.65-3.7-11.3-11.17-15.61-14.93-8.63-39.16-8.63-54.09 0-7.47 4.31-11.18 10-11.17 15.61v3c.09 5.58 3.83 11.14 11.21 15.4 14.94 8.62 39.16 8.62 54.09 0 7.38-4.26 11.12-9.82 11.21-15.4z" fill="#407bff"/><path d="M468.27 265.84c0-5.65-3.7-11.3-11.17-15.61-14.93-8.63-39.16-8.63-54.09 0-7.47 4.31-11.18 10-11.17 15.61v3c.09 5.58 3.83 11.14 11.21 15.4 14.94 8.62 39.16 8.62 54.09 0 7.38-4.26 11.12-9.82 11.21-15.4z" fill="#fff" opacity=".4"/><path d="M403 250.23c-14.94 8.62-14.94 22.61 0 31.23s39.16 8.63 54.09 0 14.94-22.61 0-31.23-39.19-8.63-54.09 0z" fill="#407bff"/><path d="M403 250.23c-14.94 8.62-14.94 22.61 0 31.23s39.16 8.63 54.09 0 14.94-22.61 0-31.23-39.19-8.63-54.09 0z" fill="#fff" opacity=".6"/><path d="M438.4 258.55c4.76 2.75 4.76 7.21 0 10s-12.49 2.75-17.25 0-4.77-7.21 0-10 12.48-2.75 17.25 0z" opacity=".05"/><path d="M422.18 264.14c-4.15-4.23-6.59-14.81-2.54-18.16h20.59c4 3.35 1.61 13.92-2.53 18.16l-.12.11a.93.93 0 01-.14.14l-.37.34-.1.08-.32.23a4.41 4.41 0 01-.53.35 13.68 13.68 0 01-12.37 0c-.18-.11-.36-.22-.54-.35l-.29-.22-.12-.1a3.73 3.73 0 01-.36-.32l-.17-.16z" fill="#ebebeb"/><path d="M438.44 244.62c4.7 2.72 4.7 7.12 0 9.83s-12.31 2.71-17 0-4.7-7.11 0-9.83 12.31-2.71 17 0z" fill="#fafafa"/><path d="M435.11 246.55c2.86 1.65 2.86 4.32 0 6a11.44 11.44 0 01-10.35 0c-2.86-1.65-2.86-4.32 0-6a11.44 11.44 0 0110.35 0z" fill="#ebebeb"/><path d="M424.76 249.38a11.44 11.44 0 0110.35 0 4.7 4.7 0 011.71 1.57 4.54 4.54 0 01-1.71 1.57 11.44 11.44 0 01-10.35 0 4.54 4.54 0 01-1.71-1.57 4.7 4.7 0 011.71-1.57z" fill="#e0e0e0"/><path d="M434.48 251a23.48 23.48 0 003.75-5c1.73-3.06 2-7.16 1.15-7.66s-4.53 3.58-4.53 3.58a22.45 22.45 0 00.38-5.22c-.15-2.73-.82-5.2-1.6-5.7s-2.52 2.94-3.27 5.43-1.19 4.53-1.19 4.53a39.33 39.33 0 00-1.35-5.73c-.9-2.58-1.73-3.17-2.37-2.91s-1.06 1.46-1.24 4.9a34.61 34.61 0 00.15 4.93s-1.28-1.41-2.71-2.78-2.23-1.71-2.68-1.42-.57 2.62 1.86 7a24.2 24.2 0 004.57 6s3.35 2.17 9.08.05zM184.56 31.76l-122.2 70.56a12.32 12.32 0 00-6.15 10.2v284.12c0 4.18 2.58 9.06 5.76 10.9s8.7 1.63 12.32-.46l121.78-70.31a14.55 14.55 0 006.55-11.35V42.19c0-4.18-2.58-9-5.76-10.89s-8.69-1.63-12.3.46z" fill="#407bff"/><path d="M184.56 31.76l-122.2 70.56a12.32 12.32 0 00-6.15 10.2v284.12c0 4.18 2.58 9.06 5.76 10.9s8.7 1.63 12.32-.46l121.78-70.31a14.55 14.55 0 006.55-11.35V42.19c0-4.18-2.58-9-5.76-10.89s-8.69-1.63-12.3.46z" opacity=".05"/><path d="M72.72 407.83c-3.5 1.36-8 1.29-10.74-.29-3.18-1.84-5.76-6.72-5.76-10.9V112.52a11.76 11.76 0 011.66-5.62l10.57 6a12.76 12.76 0 00-3 7.63V402c-.06 5 3.12 7.37 7.27 5.83z" fill="#407bff"/><path d="M72.72 407.83c-3.5 1.36-8 1.29-10.74-.29-3.18-1.84-5.76-6.72-5.76-10.9V112.52a11.76 11.76 0 011.66-5.62l10.57 6a12.76 12.76 0 00-3 7.63V402c-.06 5 3.12 7.37 7.27 5.83z" opacity=".3"/><path d="M71.17 110.53a12.81 12.81 0 00-5.78 10V402c0 5.64 4 8 8.89 5.13l121.8-70.32a14.55 14.55 0 006.55-11.35V42.19c0-4.16-2.95-5.86-6.55-3.78z" fill="#407bff"/><path d="M71.17 110.53a12.81 12.81 0 00-5.78 10V402c0 5.64 4 8 8.89 5.13l121.8-70.32a14.55 14.55 0 006.55-11.35V42.19c0-4.16-2.95-5.86-6.55-3.78z" opacity=".15"/><path d="M75.66 127.46a13.77 13.77 0 00-6.23 10.79v252.62c0 4 2.79 5.58 6.23 3.59L190.72 328a13.82 13.82 0 006.22-10.79V64.62c0-4-2.8-5.57-6.23-3.59z" fill="#263238"/><path d="M187.42 310.33V62.93L75.66 127.46a13.78 13.78 0 00-6.23 10.79v247.4l111.76-64.54a13.79 13.79 0 006.23-10.78z" fill="#37474f"/><path d="M123.71 88.18l19-10.94c1.13-.65 2.05-.19 2.05 1a4.38 4.38 0 01-2.05 3.4l-19 11c-1.13.65-2 .19-2-1a4.4 4.4 0 012-3.46zm32.52-18.8c1.06-.62 1.92-.12 1.92 1.11a4.24 4.24 0 01-1.92 3.32c-1.06.61-1.92.12-1.92-1.11a4.24 4.24 0 011.92-3.32zm7.69-4.44c1.06-.61 1.92-.11 1.92 1.11a4.24 4.24 0 01-1.92 3.33c-1.06.61-1.92.12-1.92-1.11a4.27 4.27 0 011.92-3.33zm-61.47 35.49c1.06-.61 1.92-.12 1.92 1.11a4.27 4.27 0 01-1.92 3.33c-1.06.61-1.92.11-1.92-1.11a4.24 4.24 0 011.92-3.33zm7.69-4.43c1.06-.62 1.92-.12 1.92 1.11a4.24 4.24 0 01-1.92 3.32c-1.06.62-1.92.12-1.92-1.11a4.24 4.24 0 011.92-3.32z" fill="#263238"/><path d="M355.88 190.26a4.78 4.78 0 00-2.16-3.73l-1.75-1a4.79 4.79 0 00-4.3 0l-26.86 15.54a4.73 4.73 0 00-2.15 3.72v29.56a4.76 4.76 0 002.15 3.73l1.75 1a4.79 4.79 0 004.3 0l26.86-15.54a4.74 4.74 0 002.16-3.73z" fill="#407bff"/><path d="M318.66 234.34a4.76 4.76 0 002.15 3.73l1.75 1a4.8 4.8 0 003.93.17c-1 .38-1.78-.19-1.78-1.41v-29.55a4.36 4.36 0 01.63-2.12l-6-3.5a4.43 4.43 0 00-.63 2.12z" opacity=".2"/><path d="M355.8 189.65c-.25-.92-1.08-1.21-2.07-.63l-26.87 15.54a4.25 4.25 0 00-1.51 1.6l-6.06-3.49a4.38 4.38 0 011.52-1.61l26.86-15.54a4.79 4.79 0 014.3 0l1.76 1a4.72 4.72 0 012.07 3.13z" fill="#fff" opacity=".3"/><path d="M349.24 200.34a.58.58 0 00-.57 0l-17.56 10.14a.56.56 0 00-.28.49v16.66a.58.58 0 00.28.49.6.6 0 00.28.08.6.6 0 00.29-.08L349.24 218a.58.58 0 00.28-.49v-16.68a.58.58 0 00-.28-.49zM340 215.17l-7.46-4.17 14.85-8.57zm-2.58-.16L332 225.33v-13.39zm1 .56l1.52.87a.58.58 0 00.28.07.55.55 0 00.49-.28l1.72-2.95 5.54 4.15-15.11 8.72zm4.58-3.28l5.43-9.35v13.42z" fill="#fafafa"/><path d="M310.82 216.24a4.73 4.73 0 00-2.15-3.72l-1.75-1a4.72 4.72 0 00-4.3 0L275.76 227a4.76 4.76 0 00-2.15 3.73v29.55a4.75 4.75 0 002.15 3.73l1.75 1a4.72 4.72 0 004.3 0l26.86-15.54a4.73 4.73 0 002.15-3.72z" fill="#407bff"/><path d="M273.61 260.32a4.75 4.75 0 002.15 3.73l1.75 1a4.76 4.76 0 003.93.17c-1 .39-1.78-.18-1.78-1.41v-29.55a4.43 4.43 0 01.63-2.12l-6.05-3.49a4.36 4.36 0 00-.63 2.12z" opacity=".2"/><path d="M310.75 215.63c-.25-.91-1.08-1.2-2.07-.63l-26.87 15.54a4.3 4.3 0 00-1.52 1.61l-6.05-3.5a4.35 4.35 0 011.52-1.6l26.85-15.54a4.75 4.75 0 014.31 0l1.76 1a4.75 4.75 0 012.07 3.12z" fill="#fff" opacity=".3"/><path d="M304.22 232.51l-8.5 4.91a4.88 4.88 0 00-1.85 3.91v6.15c0 1.57.83 2.37 1.85 1.78l4.51-2.61 3.14 3.3a.27.27 0 00.35 0 .79.79 0 00.23-.22 1.43 1.43 0 00.25-.95l-.63-4.09.65-.37a4.88 4.88 0 001.85-3.91v-6.15c0-1.54-.83-2.34-1.85-1.75zm.89 8.79a2.33 2.33 0 01-.89 1.87l-1.24.72a1 1 0 00-.38.49 1.38 1.38 0 00-.09.68l.38 2.23-2.11-1.9a.26.26 0 00-.35 0l-4.71 2.72c-.49.29-.89-.1-.89-.85v-6.46a2.33 2.33 0 01.89-1.87l8.5-4.91c.49-.28.89.1.89.85zm-12.31 1.88l-.16.09a.86.86 0 00-.28.31l-4.11 7 .24-4a.84.84 0 00-.07-.61.27.27 0 00-.39-.08l-1.16.68c-.61.35-1.1-.13-1.1-1.05v-9.28a2.88 2.88 0 011.1-2.31l13.62-7.86c.6-.35 1.09.12 1.09 1v5.09c0 .41.22.61.48.46a1.26 1.26 0 00.49-1v-5.02c0-1.74-.93-2.63-2.06-2l-13.62 7.87a5.43 5.43 0 00-2.06 4.35v9.27c0 1.75.92 2.64 2.06 2l.51-.3-.08 4.61c-.06.34 0 .63.18.72a.29.29 0 00.28 0 .82.82 0 00.28-.3l4.76-8.13a1.25 1.25 0 00.48-1c0-.46-.21-.69-.48-.51z" fill="#fafafa"/><path d="M265.69 242.29a4.76 4.76 0 00-2.16-3.73l-1.75-1a4.72 4.72 0 00-4.3 0l-26.86 15.53a4.76 4.76 0 00-2.15 3.73v29.56a4.73 4.73 0 002.15 3.72l1.75 1a4.72 4.72 0 004.3 0l26.86-15.53a4.78 4.78 0 002.16-3.73z" fill="#407bff"/><path d="M228.47 286.37a4.73 4.73 0 002.15 3.72l1.75 1a4.8 4.8 0 003.93.18c-1 .38-1.78-.19-1.78-1.42v-29.54a4.36 4.36 0 01.63-2.12l-6.05-3.5a4.36 4.36 0 00-.63 2.12z" opacity=".2"/><path d="M265.61 241.67c-.25-.91-1.08-1.2-2.07-.63l-26.87 15.54a4.2 4.2 0 00-1.51 1.61l-6.06-3.5a4.43 4.43 0 011.52-1.6l26.86-15.54a4.79 4.79 0 014.3 0l1.76 1a4.75 4.75 0 012.07 3.12z" fill="#fff" opacity=".3"/><path d="M254.08 276.92h-.15c-6-.51-10.16-4.57-12.5-12.05a8.61 8.61 0 012.12-8.13A2 2 0 01245 256c1.31 0 3.51 3.66 3.56 5.11a5.13 5.13 0 01-.95 2.88 3.35 3.35 0 00-.44 3.07c.71 2.06 1.88 3.15 3.57 3.36.44.05.83-.37 1.14-1.26.52-1.51 1.16-2.4 2-2.72a2 2 0 011.7.13l.27.13a13.63 13.63 0 011.39.76l.24.15c.84.51 1.57 1.13 1.16 3.16s-2 5.15-3.48 6a.49.49 0 01-.19.07h-.14a3.27 3.27 0 01-.75.08zM245 257.09c-.12 0-.34.15-.59.42a7.46 7.46 0 00-1.87 7c2.22 7.09 6 10.77 11.52 11.24a1.47 1.47 0 00.5-.07h.1c1.06-.67 2.45-3.19 2.86-5.18.28-1.41-.08-1.63-.64-2l-.28-.17a11.65 11.65 0 00-1.26-.69l-.28-.14a.84.84 0 00-.76-.09c-.32.13-.81.59-1.31 2-.63 1.83-1.63 2.11-2.34 2-2.14-.26-3.66-1.65-4.51-4.12a4.44 4.44 0 01.54-4 4 4 0 00.79-2.24c-.08-1.05-1.95-3.8-2.47-3.96z" fill="#fafafa"/><path d="M346.42 23.6L230.68 90.33a5.75 5.75 0 00-2.6 4.51v133.83a5.74 5.74 0 002.61 4.5l1.63.93a5.79 5.79 0 005.21 0l115.74-66.84a5.76 5.76 0 002.61-4.51V29a5.71 5.71 0 00-2.62-4.5l-1.62-.93a5.78 5.78 0 00-5.22.03z" fill="#e0e0e0"/><path d="M355.88 162.92c0 2.29-1.61 3.75-3.61 4.9L238.53 233.5c-2 1.14-3.6.22-3.6-2.08V99.89a7.16 7.16 0 013.58-6.21L352.27 28a2.41 2.41 0 013.61 2.08z" fill="#fafafa"/><path d="M353.47 28.65a1.4 1.4 0 011.4 1.4v132.87c0 1.56-.95 2.8-3.1 4L238 232.63a2.39 2.39 0 01-1.11.36c-.86 0-1-1-1-1.57V99.89a6.18 6.18 0 013.11-5.34l113.77-65.71a1.37 1.37 0 01.7-.19m0-1a2.34 2.34 0 00-1.2.33l-113.76 65.7a7.16 7.16 0 00-3.58 6.21v131.53c0 1.63.81 2.57 2 2.57a3.29 3.29 0 001.61-.49l113.74-65.68c2-1.15 3.61-2.61 3.61-4.9V30.05a2.42 2.42 0 00-2.41-2.41z" fill="#e0e0e0"/><path d="M355.88 29v1a2.41 2.41 0 00-3.61-2L238.51 93.68a7.08 7.08 0 00-2.62 2.62v.08l-7-4.06a5.39 5.39 0 011.88-2L346.42 23.6a5.73 5.73 0 015.21 0l1.63.93a5.73 5.73 0 012.62 4.47z" fill="#f0f0f0"/><path d="M249.39 124h-.16l-.08-.08-1.72-3v3.9a.54.54 0 01-.05.21.24.24 0 01-.12.14l-.49.29h-.12a.21.21 0 01-.05-.15v-6.11a.54.54 0 01.05-.21.24.24 0 01.12-.14l.43-.25h.16l.08.09 1.72 2.94v-3.9a.54.54 0 01.05-.21.28.28 0 01.12-.14l.49-.29a.1.1 0 01.12 0 .21.21 0 01.05.15v6.12a.54.54 0 01-.05.21.33.33 0 01-.12.14zm1.5-4.61a2.88 2.88 0 01.12-.49 2.83 2.83 0 01.25-.57 3 3 0 01.4-.56 2.17 2.17 0 01.55-.45 1.33 1.33 0 01.56-.19.56.56 0 01.44.12.93.93 0 01.28.46 2.89 2.89 0 01.1.8v2.78a.54.54 0 01-.05.21c0 .07-.07.12-.12.14l-.47.27a.08.08 0 01-.11 0 .17.17 0 01-.05-.15v-.31a2.72 2.72 0 01-.38.68 1.79 1.79 0 01-.61.55 1.21 1.21 0 01-.48.17.48.48 0 01-.35-.11.87.87 0 01-.22-.34 1.75 1.75 0 01-.07-.55 2.42 2.42 0 01.3-1.19 3.37 3.37 0 01.8-1l1-.84c0-.26-.06-.41-.17-.46a.51.51 0 00-.41.08 1 1 0 00-.24.2 2.29 2.29 0 00-.17.28.55.55 0 01-.1.16.28.28 0 01-.1.09l-.57.33h-.11c-.03 0-.02-.04-.02-.11zm1 2.08a1.56 1.56 0 00.37-.31 1.91 1.91 0 00.28-.4 2.5 2.5 0 00.16-.43 1.64 1.64 0 00.06-.42v-.1l-.84.71a1.45 1.45 0 00-.36.41.71.71 0 00-.11.4c0 .14 0 .21.13.22a.5.5 0 00.34-.08zm3.31-5.31a2.47 2.47 0 01.36-.62 1.36 1.36 0 01.44-.4.82.82 0 01.63-.15.75.75 0 01.39.36 3.57 3.57 0 01.19-.45 3 3 0 01.25-.4 2.21 2.21 0 01.28-.32 2.47 2.47 0 01.26-.18.86.86 0 01.59-.15.58.58 0 01.38.26 1.63 1.63 0 01.2.59 5 5 0 01.06.81V118a.54.54 0 01-.05.21.42.42 0 01-.12.14l-.47.27a.08.08 0 01-.11 0 .17.17 0 01-.05-.15V116a1.35 1.35 0 00-.16-.81c-.11-.11-.26-.1-.45 0a1 1 0 00-.42.49 2.25 2.25 0 00-.19 1v2.54a.54.54 0 01-.05.21.24.24 0 01-.12.14l-.46.27h-.12a.25.25 0 01-.05-.16v-2.5a1.26 1.26 0 00-.16-.8q-.17-.16-.45 0a1.17 1.17 0 00-.43.51 2.29 2.29 0 00-.18 1v2.5a.46.46 0 01-.16.35l-.47.27a.11.11 0 01-.12 0 .21.21 0 010-.15v-4.41a.54.54 0 010-.21.35.35 0 01.12-.14l.47-.28a.09.09 0 01.11 0 .2.2 0 010 .15zm4.69-.72a5.45 5.45 0 01.11-1.06 5.18 5.18 0 01.3-1 3.61 3.61 0 01.48-.81 2 2 0 01.62-.56 1 1 0 01.63-.17.71.71 0 01.47.25 1.56 1.56 0 01.31.59 3.17 3.17 0 01.1.86v.46a.41.41 0 01-.05.21.37.37 0 01-.11.15l-2.06 1.18a.85.85 0 00.06.35.38.38 0 00.16.19.34.34 0 00.23 0 .77.77 0 00.26-.1 1.16 1.16 0 00.32-.24 1.31 1.31 0 00.2-.28l.11-.16a.4.4 0 01.12-.1l.49-.28h.12s.05.08.05.16a1.38 1.38 0 01-.1.39 3 3 0 01-.26.56 4.58 4.58 0 01-.44.6 2.92 2.92 0 01-.61.49 1.06 1.06 0 01-.62.17.64.64 0 01-.48-.25 1.54 1.54 0 01-.3-.63 4 4 0 01-.11-.97zm1.51-2.29a1.08 1.08 0 00-.3.26 1.15 1.15 0 00-.21.33 1.78 1.78 0 00-.14.36 2.33 2.33 0 00-.06.33l1.39-.8a1.26 1.26 0 000-.27.46.46 0 00-.11-.22.26.26 0 00-.21-.09.61.61 0 00-.36.1z" fill="#455a64"/><path d="M268.94 91a2.15 2.15 0 00-.56.47 2.85 2.85 0 00-.37.6 4.11 4.11 0 00-.21.68c0 .24-.08.48-.1.73s0 .32 0 .56v1.98a3.38 3.38 0 00.1.61 1.13 1.13 0 00.21.44.52.52 0 00.38.17 1 1 0 00.55-.18 2.18 2.18 0 00.49-.37 2.22 2.22 0 00.39-.51 3.12 3.12 0 00.27-.67 3.58 3.58 0 00.09-.83l-.82.48a.15.15 0 01-.19 0 .36.36 0 01-.08-.25v-1.6a.88.88 0 01.08-.34.56.56 0 01.19-.23l2.38-1.37a.15.15 0 01.19 0 .36.36 0 01.07.25v1.93a7.28 7.28 0 01-.23 1.88 8.12 8.12 0 01-.65 1.69 6.67 6.67 0 01-1 1.38 4.87 4.87 0 01-1.21 1 2.58 2.58 0 01-1.26.4 1.39 1.39 0 01-.95-.34 2.09 2.09 0 01-.6-1 5.53 5.53 0 01-.25-1.44v-2.7a8.78 8.78 0 01.24-1.72 8.67 8.67 0 01.61-1.66 6.59 6.59 0 01.95-1.43 4.87 4.87 0 011.26-1.06 2.63 2.63 0 011.24-.4 1.59 1.59 0 01.94.24 1.87 1.87 0 01.6.7 2.56 2.56 0 01.24 1 .66.66 0 01-.06.27.52.52 0 01-.16.19l-1.31.75c-.1.06-.18.06-.23 0l-.16-.18a.82.82 0 00-.38-.28q-.2-.07-.69.16zm5.59 2.07a1.2 1.2 0 00.09.53.42.42 0 00.21.24.44.44 0 00.28 0 1.2 1.2 0 00.31-.13 2 2 0 00.47-.36 1.84 1.84 0 00.29-.42l.15-.27a.63.63 0 01.17-.13l1.28-.74c.14-.08.22 0 .22.21a2.53 2.53 0 01-.15.64 6.17 6.17 0 01-.46 1 7.45 7.45 0 01-.8 1.14 4.55 4.55 0 01-1.17 1 2.33 2.33 0 01-1.14.37 1.09 1.09 0 01-.83-.32 2.16 2.16 0 01-.52-1 6.76 6.76 0 01-.17-1.62 9 9 0 01.17-1.72 7.5 7.5 0 01.52-1.6 5.63 5.63 0 01.83-1.33 4.2 4.2 0 011.14-1 1.94 1.94 0 011.22-.34 1.3 1.3 0 01.83.49 2.53 2.53 0 01.46 1.06 6.09 6.09 0 01.14 1.38v.42a.78.78 0 01-.07.43.57.57 0 01-.19.23zm.89-3.42a1.47 1.47 0 00-.63.75 3 3 0 00-.26 1l1.77-1a1.2 1.2 0 00-.25-.7c-.15-.2-.36-.2-.63-.05zm5.86-.47a.9.9 0 00.1.48c.07.09.17.09.33 0l.78-.45a.14.14 0 01.19 0 .33.33 0 01.08.24V91a.8.8 0 01-.08.33.45.45 0 01-.19.23l-.93.54a1.73 1.73 0 01-.84.28.91.91 0 01-.65-.21 1.52 1.52 0 01-.41-.71 3.8 3.8 0 01-.15-1.16v-2.55l-.73.42a.14.14 0 01-.18 0 .29.29 0 01-.08-.24v-1.55a.67.67 0 01.08-.33.49.49 0 01.18-.23l.73-.42v-2.47a.8.8 0 01.08-.33.45.45 0 01.19-.23l1.24-.72a.13.13 0 01.18 0 .31.31 0 01.08.24v2.47l1.11-.65a.15.15 0 01.19 0 .33.33 0 01.08.24v1.53a.8.8 0 01-.08.33.45.45 0 01-.19.23l-1.11.64zm6.17-9.61a.88.88 0 01-.08.34.49.49 0 01-.19.23l-1.24.71a.14.14 0 01-.18 0 .33.33 0 01-.08-.24v-1.54a.84.84 0 01.08-.34.54.54 0 01.18-.23l1.24-.71h.19a.33.33 0 01.08.24zm0 8.71a.8.8 0 01-.08.33.41.41 0 01-.19.23l-1.24.72a.14.14 0 01-.18 0 .34.34 0 01-.08-.25v-7a.84.84 0 01.08-.34.54.54 0 01.18-.23l1.24-.71h.19a.33.33 0 01.08.24zm6.39-3.68a.8.8 0 01-.08.33.57.57 0 01-.19.23l-1.24.71a.15.15 0 01-.19 0 .33.33 0 01-.08-.24v-3.84a1.56 1.56 0 00-.2-.93c-.14-.18-.36-.19-.65 0a1.5 1.5 0 00-.65.77 3.2 3.2 0 00-.2 1.16v3.81a.67.67 0 01-.08.33.49.49 0 01-.18.23l-1.24.72h-.19a.37.37 0 01-.08-.25v-7.07a.8.8 0 01.08-.33.45.45 0 01.19-.23l1.19-.68a.14.14 0 01.19 0 .33.33 0 01.07.24v.35c.06-.13.12-.28.2-.43a2.52 2.52 0 01.29-.46 3.86 3.86 0 01.38-.44 2.58 2.58 0 01.52-.38 2.06 2.06 0 01.87-.3.91.91 0 01.67.24 1.8 1.8 0 01.44.83 5.7 5.7 0 01.16 1.45zm5.34-5.75a.82.82 0 00.1.48c.06.09.17.09.32 0l.79-.46a.14.14 0 01.18 0 .29.29 0 01.08.24v1.53a.67.67 0 01-.08.33.49.49 0 01-.18.23l-.94.54a1.85 1.85 0 01-.84.28.85.85 0 01-.64-.22 1.44 1.44 0 01-.42-.7 3.87 3.87 0 01-.14-1.16v-2.53l-.73.42a.14.14 0 01-.19 0 .33.33 0 01-.08-.24v-1.54a.8.8 0 01.08-.33.5.5 0 01.19-.23l.73-.42V72.6a.78.78 0 01.07-.33.51.51 0 01.19-.23l1.24-.72a.15.15 0 01.19 0 .34.34 0 01.08.25V74l1.11-.64a.15.15 0 01.19 0 .33.33 0 01.07.24v1.53a.78.78 0 01-.07.33.57.57 0 01-.19.23l-1.11.64zm7.44-5.74v1.16a6.37 6.37 0 01-.21 1.49 7 7 0 01-.54 1.43 6.17 6.17 0 01-.83 1.23 4.39 4.39 0 01-1.09.9 2.23 2.23 0 01-1.09.35 1.21 1.21 0 01-.83-.27 1.77 1.77 0 01-.54-.8 4 4 0 01-.22-1.24V76.2a6.52 6.52 0 01.21-1.49 6.94 6.94 0 01.54-1.42 6.43 6.43 0 01.84-1.24 4.23 4.23 0 011.09-.91 2.23 2.23 0 011.09-.35 1.26 1.26 0 01.83.28 1.63 1.63 0 01.54.8 3.78 3.78 0 01.21 1.24zM303 76.27a1 1 0 00.27.74.56.56 0 00.64 0 1.63 1.63 0 00.63-.69 2.59 2.59 0 00.27-1.06 4.35 4.35 0 000-.53 3.78 3.78 0 000-.5 1 1 0 00-.27-.74c-.16-.13-.37-.12-.63 0a1.65 1.65 0 00-.64.69 2.55 2.55 0 00-.27 1.06v1.03zm4.5-6.62a.8.8 0 01.08-.33.44.44 0 01.18-.23l1.25-.72a.14.14 0 01.18 0 .36.36 0 01.08.25v3.83a1.76 1.76 0 00.19.94c.12.19.33.2.62 0a1.35 1.35 0 00.61-.75 3.35 3.35 0 00.18-1.15V67.7a.8.8 0 01.08-.33.51.51 0 01.19-.23l1.24-.72a.15.15 0 01.19 0 .37.37 0 01.07.25v7.06a.78.78 0 01-.07.33.57.57 0 01-.19.23l-1.14.66a.15.15 0 01-.19 0 .33.33 0 01-.08-.24v-.35a3.25 3.25 0 01-.19.44 2.76 2.76 0 01-.28.45 3.85 3.85 0 01-.39.44 2.58 2.58 0 01-.52.38c-.64.37-1.15.38-1.52 0a3.19 3.19 0 01-.57-2.3zm7.85-1.54v1.07a1 1 0 00.27.72c.15.13.36.12.62 0a1.54 1.54 0 00.5-.43 2 2 0 00.28-.56 1.81 1.81 0 01.12-.28.4.4 0 01.17-.19l1.29-.75a.17.17 0 01.19 0 .31.31 0 01.07.25 4.3 4.3 0 01-.13.79 5.08 5.08 0 01-.41 1.16 6.08 6.08 0 01-.8 1.27 4.4 4.4 0 01-1.28 1.08 2.39 2.39 0 01-1 .35 1.27 1.27 0 01-.84-.22 1.63 1.63 0 01-.57-.76 3.77 3.77 0 01-.23-1.32v-1.21a6.42 6.42 0 01.23-1.58 6.88 6.88 0 01.57-1.43 6 6 0 01.84-1.18 4.38 4.38 0 011-.83 2.31 2.31 0 011.28-.4 1.34 1.34 0 01.8.34 1.51 1.51 0 01.41.7 2.4 2.4 0 01.13.64.64.64 0 01-.07.32.54.54 0 01-.19.24l-1.29.74a.15.15 0 01-.17 0 .61.61 0 01-.12-.15.44.44 0 00-.28-.24.74.74 0 00-.5.15 1.55 1.55 0 00-.62.69 2.58 2.58 0 00-.27 1.02zm9.65-1.48a.67.67 0 01-.08.33.49.49 0 01-.18.23l-1.24.72h-.19a.33.33 0 01-.08-.24v-3.85a1.69 1.69 0 00-.2-.93c-.14-.18-.36-.18-.65 0a1.44 1.44 0 00-.65.76 3.24 3.24 0 00-.2 1.16v3.83a.81.81 0 01-.08.34.45.45 0 01-.19.23l-1.24.71a.13.13 0 01-.18 0 .29.29 0 01-.08-.24v-9.96a.67.67 0 01.08-.33.49.49 0 01.18-.23l1.24-.72a.15.15 0 01.19 0 .33.33 0 01.08.24v3.23A4.2 4.2 0 01322 61a2.71 2.71 0 01.82-.77 1.91 1.91 0 01.86-.29.85.85 0 01.68.24 1.75 1.75 0 01.43.82 5.28 5.28 0 01.16 1.45z" fill="#407bff"/><path fill="#e0e0e0" d="M246.07 130.3l99.98-57.73v8.88l-99.98 57.73v-8.88z"/><path d="M249.47 149.38a.09.09 0 01.11 0 .17.17 0 010 .15v.67a.41.41 0 010 .21.37.37 0 01-.11.15l-2.7 1.55h-.12a.25.25 0 01-.05-.16v-6.11a.54.54 0 01.05-.21.24.24 0 01.12-.14l2.65-1.53a.07.07 0 01.11 0 .17.17 0 01.05.15v.67a.41.41 0 01-.05.21.27.27 0 01-.11.14l-2 1.15v1.5l1.85-1.07a.1.1 0 01.12 0 .21.21 0 010 .15v.68a.49.49 0 010 .2.31.31 0 01-.12.15l-1.84 1.11v1.57zm1.67-4.23a2.73 2.73 0 01.36-.63 1.59 1.59 0 01.43-.4.87.87 0 01.64-.14.64.64 0 01.38.36 3.44 3.44 0 01.45-.85 3 3 0 01.27-.32 1.57 1.57 0 01.33-.17.91.91 0 01.58-.16.55.55 0 01.38.27 1.41 1.41 0 01.2.58 5.17 5.17 0 01.06.82V147a.37.37 0 010 .2.37.37 0 01-.11.15l-.47.27a.1.1 0 01-.12 0 .21.21 0 010-.15V145a1.28 1.28 0 00-.16-.81q-.15-.16-.45 0a1.22 1.22 0 00-.42.49 2.33 2.33 0 00-.18 1v2.55a.54.54 0 010 .21.34.34 0 01-.12.14l-.47.27a.08.08 0 01-.11 0 .17.17 0 010-.15v-2.5a1.35 1.35 0 00-.16-.81c-.11-.1-.26-.1-.45 0a1.17 1.17 0 00-.43.51 2.24 2.24 0 00-.18 1v2.5a.54.54 0 010 .21.31.31 0 01-.12.15l-.46.27a.1.1 0 01-.12 0 .21.21 0 010-.15v-4.42a.49.49 0 010-.2.31.31 0 01.12-.15l.46-.27a.1.1 0 01.12 0 .21.21 0 010 .15zm4.86-2.06a2.77 2.77 0 01.11-.49 3.25 3.25 0 01.26-.58 2.57 2.57 0 01.4-.55 2 2 0 01.55-.45 1.31 1.31 0 01.56-.2.62.62 0 01.44.13.89.89 0 01.28.46 2.94 2.94 0 01.09.8V145a.41.41 0 01-.05.21.33.33 0 01-.11.14l-.47.27a.09.09 0 01-.12 0 .21.21 0 01-.05-.15v-.31a2.4 2.4 0 01-.37.68 1.94 1.94 0 01-.62.55 1.12 1.12 0 01-.47.17.51.51 0 01-.35-.11.77.77 0 01-.22-.34 1.77 1.77 0 01-.08-.55 2.49 2.49 0 01.31-1.2 3.47 3.47 0 01.8-1l1-.85c0-.25-.05-.41-.16-.45a.47.47 0 00-.41.08.61.61 0 00-.24.2 1.48 1.48 0 00-.17.28l-.1.16a.41.41 0 01-.1.09l-.57.33a.11.11 0 01-.11 0s-.03-.04-.03-.11zm1 2.07a1.52 1.52 0 00.37-.3 1.76 1.76 0 00.27-.4 1.82 1.82 0 00.17-.44 1.51 1.51 0 00.05-.42v-.09l-.83.71a1.42 1.42 0 00-.36.4.78.78 0 00-.12.41c0 .13.05.21.14.22a.53.53 0 00.31-.09zm3.17-7.49a.07.07 0 01.11 0 .21.21 0 01.05.15v.74a.49.49 0 01-.05.2.37.37 0 01-.11.15l-.53.3h-.12a.21.21 0 010-.15v-.74a.49.49 0 010-.2.31.31 0 01.12-.15zm.13 6.38a.54.54 0 01-.05.21.31.31 0 01-.12.15l-.46.27a.1.1 0 01-.12 0 .21.21 0 01-.05-.15v-4.43a.53.53 0 01.05-.2.31.31 0 01.12-.15l.46-.27a.1.1 0 01.12 0 .21.21 0 01.05.15zm1.7-.95a.54.54 0 01-.05.21.31.31 0 01-.12.15l-.46.26h-.12a.25.25 0 01-.05-.16v-6.2a.54.54 0 01.05-.21.31.31 0 01.12-.15l.46-.27a.1.1 0 01.12 0 .21.21 0 01.05.15zm2.2-4.75a2.77 2.77 0 01.11-.49 2.88 2.88 0 01.26-.57 2.39 2.39 0 01.4-.56 2 2 0 01.55-.45 1.41 1.41 0 01.56-.2.58.58 0 01.43.13.78.78 0 01.28.46 2.56 2.56 0 01.1.8v2.78a.41.41 0 01-.05.21.33.33 0 01-.11.14l-.47.27a.09.09 0 01-.12 0 .21.21 0 01-.05-.15v-.31a2.67 2.67 0 01-.37.68 1.94 1.94 0 01-.62.55 1.12 1.12 0 01-.47.17.51.51 0 01-.35-.11.7.7 0 01-.22-.34 1.73 1.73 0 01-.08-.55 2.43 2.43 0 01.31-1.19 3.37 3.37 0 01.8-1l1-.85c0-.25 0-.4-.16-.45a.47.47 0 00-.41.08.71.71 0 00-.24.2 1.48 1.48 0 00-.17.28l-.1.16a.41.41 0 01-.1.09l-.58.33a.09.09 0 01-.1 0s-.04-.04-.03-.11zm1 2.07a1.74 1.74 0 00.37-.3 1.76 1.76 0 00.27-.4 1.82 1.82 0 00.17-.44 2 2 0 000-.42v-.09l-.83.71a1.67 1.67 0 00-.37.4.87.87 0 00-.11.41c0 .14.05.21.14.22a.53.53 0 00.39-.09zm3.74-6.11a1 1 0 01.34-.14.64.64 0 01.27 0 .54.54 0 01.19.08.47.47 0 01.13.11v-2a.54.54 0 01.05-.21.33.33 0 01.08-.15l.47-.27a.09.09 0 01.12 0 .21.21 0 01.05.15v6.21a.54.54 0 01-.05.21.28.28 0 01-.12.14l-.47.27a.08.08 0 01-.11 0 .21.21 0 01-.05-.15v-.22c0 .08-.08.16-.13.26a2.49 2.49 0 01-.19.3 2.44 2.44 0 01-.27.29 1.8 1.8 0 01-.34.26.82.82 0 01-.56.13.7.7 0 01-.42-.24 1.5 1.5 0 01-.28-.55 3.06 3.06 0 01-.11-.78 3.11 3.11 0 010-.32v-.34a4.8 4.8 0 01.11-.9 4.66 4.66 0 01.28-.87 4.07 4.07 0 01.42-.74 1.75 1.75 0 01.59-.53zm-.57 2.62a4.68 4.68 0 000 .53c0 .39.1.64.24.74a.45.45 0 00.51 0 1.36 1.36 0 00.51-.57 2.2 2.2 0 00.24-.93v-.36a3.33 3.33 0 000-.35.89.89 0 00-.24-.65.45.45 0 00-.51 0 1.43 1.43 0 00-.51.57 2.41 2.41 0 00-.24 1.02zm4.38-4.82a.94.94 0 01.34-.14.58.58 0 01.26 0 .43.43 0 01.2.07l.13.11v-2a.52.52 0 010-.21.58.58 0 01.12-.14l.47-.27a.09.09 0 01.11 0 .17.17 0 01.05.15v6.21a.41.41 0 01-.05.21.27.27 0 01-.11.14l-.47.27a.09.09 0 01-.12 0 .25.25 0 010-.16v-.21l-.13.25a2.61 2.61 0 01-.2.3 2.32 2.32 0 01-.26.3 2.13 2.13 0 01-.34.25.9.9 0 01-.56.14.66.66 0 01-.42-.25 1.5 1.5 0 01-.28-.55 2.65 2.65 0 01-.11-.77v-.67a4.1 4.1 0 01.11-.9 4.66 4.66 0 01.28-.87 3.15 3.15 0 01.42-.74 1.87 1.87 0 01.56-.52zm-.58 2.62a4.68 4.68 0 000 .53c0 .39.11.64.25.74a.45.45 0 00.51 0 1.43 1.43 0 00.51-.57 2.35 2.35 0 00.24-.92v-.72a.89.89 0 00-.24-.64.42.42 0 00-.51 0 1.34 1.34 0 00-.51.56 2.55 2.55 0 00-.25 1.02zm4.65-3.73a1.27 1.27 0 00-.54.56 2.28 2.28 0 00-.16.91v2.46a.41.41 0 01-.05.21.27.27 0 01-.11.14l-.47.27a.09.09 0 01-.12 0 .21.21 0 01-.05-.15V131a.54.54 0 01.05-.21.24.24 0 01.12-.14l.47-.27a.08.08 0 01.11 0 .17.17 0 01.05.15v.22a3.07 3.07 0 01.34-.55 1.6 1.6 0 01.48-.4l.28-.16a.09.09 0 01.11 0 .17.17 0 01.05.15v.63a.35.35 0 01-.05.2.37.37 0 01-.11.15zm.86.81a5.53 5.53 0 01.11-1.06 4.87 4.87 0 01.3-1 3.47 3.47 0 01.48-.82 2 2 0 01.62-.56 1 1 0 01.62-.17.71.71 0 01.48.25 1.49 1.49 0 01.31.59 3.22 3.22 0 01.1.86v.42a.41.41 0 01-.05.21.37.37 0 01-.11.15l-2.06 1.18a.85.85 0 00.06.35.38.38 0 00.16.19.34.34 0 00.23 0 .77.77 0 00.26-.1 1.16 1.16 0 00.32-.24 1.31 1.31 0 00.2-.28c.05-.07.08-.13.11-.16a.4.4 0 01.12-.1l.49-.28h.12a.17.17 0 01.05.15 1.35 1.35 0 01-.1.4 3.88 3.88 0 01-.26.56 4.58 4.58 0 01-.44.6 2.63 2.63 0 01-.61.49 1.16 1.16 0 01-.62.18.68.68 0 01-.48-.26 1.54 1.54 0 01-.3-.63 4 4 0 01-.11-.92zm1.51-2.29a1.08 1.08 0 00-.3.26 1.46 1.46 0 00-.22.33 2.6 2.6 0 00-.13.36 2.33 2.33 0 00-.06.33l1.39-.8a1.26 1.26 0 000-.27.57.57 0 00-.11-.22.27.27 0 00-.21-.09.61.61 0 00-.36.1zm3.92.21a.21.21 0 000-.15.21.21 0 00-.15 0 1.35 1.35 0 00-.29 0l-.45.11a1 1 0 01-.45 0 .52.52 0 01-.29-.16.81.81 0 01-.15-.35 3.49 3.49 0 010-.5 2.31 2.31 0 01.09-.61 2.75 2.75 0 01.25-.63 3 3 0 01.39-.57 2 2 0 01.54-.44 1.45 1.45 0 01.53-.21.77.77 0 01.41 0 .57.57 0 01.26.25.93.93 0 01.1.38.33.33 0 01-.05.21.31.31 0 01-.12.15l-.47.27a.16.16 0 01-.14 0l-.1-.06a.3.3 0 00-.15 0 .65.65 0 00-.27.11 1 1 0 00-.33.28.59.59 0 00-.14.38.35.35 0 000 .16.17.17 0 00.13.05h.27l.44-.11a.74.74 0 01.77.12 1.2 1.2 0 01.22.82 2.18 2.18 0 01-.09.6 2.73 2.73 0 01-.27.64 2.7 2.7 0 01-.43.59 2.5 2.5 0 01-.57.46 1.33 1.33 0 01-.58.21.72.72 0 01-.42-.06.62.62 0 01-.26-.27 1 1 0 01-.1-.41.39.39 0 010-.21.35.35 0 01.12-.14l.48-.28a.14.14 0 01.14 0l.1.09a.21.21 0 00.16.06.75.75 0 00.32-.12l.19-.12.18-.17.14-.19a.54.54 0 00.04-.18zm3.2-1.85a.18.18 0 000-.14.21.21 0 00-.15 0h-.29l-.45.11a1 1 0 01-.45 0 .5.5 0 01-.29-.17.76.76 0 01-.15-.34 2.53 2.53 0 010-.5 2.69 2.69 0 01.08-.61 3.07 3.07 0 01.65-1.21 2 2 0 01.53-.44 1.7 1.7 0 01.54-.21.73.73 0 01.4 0 .51.51 0 01.26.24.94.94 0 01.11.39.43.43 0 010 .21.24.24 0 01-.12.14l-.47.28h-.14l-.1-.06a.33.33 0 00-.15 0 .59.59 0 00-.28.11 1.18 1.18 0 00-.32.27.54.54 0 00-.14.38.32.32 0 000 .16.16.16 0 00.13.05h.26l.44-.11q.56-.14.78.12a1.22 1.22 0 01.22.82 2.31 2.31 0 01-.09.61 2.92 2.92 0 01-.27.64 3.41 3.41 0 01-.43.59 2.32 2.32 0 01-.58.45 1.41 1.41 0 01-.57.22.69.69 0 01-.42-.07.64.64 0 01-.27-.27.91.91 0 01-.09-.41.38.38 0 010-.2.49.49 0 01.12-.15l.48-.27h.13l.11.1a.25.25 0 00.16.05.55.55 0 00.31-.11l.2-.13.18-.17a1.33 1.33 0 00.14-.19.54.54 0 00-.01-.18z" fill="#455a64"/><path fill="#e0e0e0" d="M246.07 156.94l99.98-57.73v8.88l-99.98 57.73v-8.88z"/><path d="M248.62 174.45l1.17-3.8a1.6 1.6 0 01.08-.2.46.46 0 01.18-.21l.42-.24a.11.11 0 01.12 0 .21.21 0 010 .15v6.12a.52.52 0 010 .21.43.43 0 01-.12.14l-.5.29a.11.11 0 01-.12 0 .21.21 0 010-.15v-3.7l-.79 2.59a1.13 1.13 0 01-.09.2.4.4 0 01-.14.17l-.32.18h-.14a.41.41 0 01-.09-.1l-.8-1.67v3.7a.54.54 0 01-.05.21.28.28 0 01-.12.14l-.49.29a.1.1 0 01-.12 0 .21.21 0 01-.05-.15v-6.12a.54.54 0 01.05-.21.28.28 0 01.12-.14l.41-.24c.09-.05.15-.05.19 0l.08.1zm2.76-.81a5.51 5.51 0 01.1-1.06 4.87 4.87 0 01.3-1 3.84 3.84 0 01.48-.82 2.19 2.19 0 01.63-.56 1 1 0 01.62-.17.71.71 0 01.48.25 1.42 1.42 0 01.3.59 3.21 3.21 0 01.11.86v.42a.54.54 0 01-.05.21.31.31 0 01-.12.15l-2 1.18a.85.85 0 00.06.35.42.42 0 00.15.19.35.35 0 00.23 0 .64.64 0 00.27-.1 1.11 1.11 0 00.31-.24 1.37 1.37 0 00.21-.28.85.85 0 01.11-.16.4.4 0 01.12-.1l.49-.28a.09.09 0 01.12 0 .18.18 0 010 .16 1.29 1.29 0 01-.09.39 3.14 3.14 0 01-.27.56 3.82 3.82 0 01-.44.6 2.39 2.39 0 01-.6.49 1.17 1.17 0 01-.63.18.7.7 0 01-.48-.26 1.54 1.54 0 01-.3-.63 4 4 0 01-.11-.92zm1.51-2.29a1.13 1.13 0 00-.31.26 1.85 1.85 0 00-.21.33 1.74 1.74 0 00-.13.36 2.33 2.33 0 00-.06.33l1.39-.8a2.56 2.56 0 000-.27.46.46 0 00-.11-.22.25.25 0 00-.2-.09.58.58 0 00-.37.1zm3.92.21a.27.27 0 000-.15.23.23 0 00-.16 0 1.28 1.28 0 00-.28.05l-.46.11a1 1 0 01-.44 0 .49.49 0 01-.29-.16.81.81 0 01-.15-.35 2.47 2.47 0 010-.5 2.28 2.28 0 01.08-.61 3.3 3.3 0 01.25-.63 3.09 3.09 0 01.4-.57 1.86 1.86 0 01.53-.44 1.42 1.42 0 01.54-.21.73.73 0 01.4 0 .53.53 0 01.26.25.94.94 0 01.11.39.53.53 0 010 .2.38.38 0 01-.12.15l-.47.27a.17.17 0 01-.14 0l-.1-.06a.24.24 0 00-.15 0 .63.63 0 00-.28.1 1.06 1.06 0 00-.32.28.55.55 0 00-.15.38.34.34 0 000 .16.14.14 0 00.13.05h.26l.44-.11c.37-.09.62 0 .77.12a1.2 1.2 0 01.23.82 2.18 2.18 0 01-.09.6 4 4 0 01-.27.64 3.07 3.07 0 01-.43.59 2.35 2.35 0 01-.58.46 1.34 1.34 0 01-.57.21.7.7 0 01-.42-.06.59.59 0 01-.27-.27 1.12 1.12 0 01-.1-.41.54.54 0 01.05-.21.24.24 0 01.12-.14l.47-.28h.14l.11.09a.21.21 0 00.16.06.61.61 0 00.31-.12 1 1 0 00.19-.12 1 1 0 00.18-.17.77.77 0 00.14-.19.42.42 0 00-.03-.22zm3.19-1.85a.18.18 0 00-.05-.14.21.21 0 00-.15 0 2.11 2.11 0 00-.28.05l-.46.11a1 1 0 01-.45 0 .48.48 0 01-.28-.17.59.59 0 01-.15-.34 2.49 2.49 0 01-.05-.5 2.25 2.25 0 01.09-.61 2.85 2.85 0 01.25-.63 3.27 3.27 0 01.39-.58 2.27 2.27 0 01.54-.44 1.86 1.86 0 01.54-.21.74.74 0 01.4 0 .55.55 0 01.26.24.93.93 0 01.1.39.39.39 0 010 .21.43.43 0 01-.12.14l-.48.27c-.06 0-.1.05-.13 0a.3.3 0 01-.11-.06.26.26 0 00-.14 0 .68.68 0 00-.28.11 1.4 1.4 0 00-.33.27.6.6 0 00-.14.39.22.22 0 000 .15h.39l.44-.11a.74.74 0 01.77.12 1.22 1.22 0 01.23.82 2.35 2.35 0 01-.1.61 3.44 3.44 0 01-.26.64 4.66 4.66 0 01-.43.59 2.74 2.74 0 01-.58.45 1.51 1.51 0 01-.58.22.72.72 0 01-.42-.07.62.62 0 01-.26-.27 1.08 1.08 0 01-.1-.41.39.39 0 01.05-.2.31.31 0 01.12-.15l.47-.27h.14l.1.09a.29.29 0 00.17.05.57.57 0 00.31-.11l.19-.13a1 1 0 00.18-.17.85.85 0 00.14-.19.42.42 0 00.06-.16zm1.46-3.14a3.13 3.13 0 01.12-.49 2.83 2.83 0 01.25-.57 3 3 0 01.4-.56 2.13 2.13 0 01.55-.44 1.23 1.23 0 01.56-.2.6.6 0 01.44.12.93.93 0 01.28.46 3 3 0 01.1.8v2.78a.54.54 0 01-.05.21c0 .07-.07.12-.12.14l-.47.27a.08.08 0 01-.11 0 .21.21 0 01-.05-.16v-.31a2.72 2.72 0 01-.38.68 1.79 1.79 0 01-.61.55 1.07 1.07 0 01-.48.17.52.52 0 01-.35-.1.92.92 0 01-.22-.35 1.73 1.73 0 01-.07-.54 2.43 2.43 0 01.3-1.2 3.51 3.51 0 01.8-1l1-.84c0-.26-.06-.41-.17-.46a.51.51 0 00-.41.08.83.83 0 00-.24.21 1.59 1.59 0 00-.17.27.55.55 0 01-.1.16.28.28 0 01-.1.09l-.57.33a.08.08 0 01-.11 0s-.03-.03-.02-.1zm1 2.08a1.36 1.36 0 00.37-.31 1.56 1.56 0 00.27-.4 1.92 1.92 0 00.17-.43 1.64 1.64 0 00.06-.42V167l-.84.71a1.45 1.45 0 00-.36.41.72.72 0 00-.11.41c0 .13 0 .2.13.21a.44.44 0 00.34-.09zm3.91-.25a1 1 0 00.26-.22 1.43 1.43 0 00.25-.33 2.53 2.53 0 00.18-.44 1.81 1.81 0 00.07-.52v-.35a2.08 2.08 0 01-.13.26c-.05.09-.12.19-.19.29a3.65 3.65 0 01-.27.3 1.76 1.76 0 01-.34.25.87.87 0 01-.55.14.71.71 0 01-.43-.25 1.49 1.49 0 01-.22-.53 3 3 0 01-.12-.77v-.67a4.84 4.84 0 01.12-.9 4.65 4.65 0 01.27-.87 3.58 3.58 0 01.43-.74 2 2 0 01.55-.5 1.29 1.29 0 01.34-.14.63.63 0 01.27 0 .4.4 0 01.19.07.5.5 0 01.13.11v-.22a.54.54 0 01.05-.21.28.28 0 01.12-.14l.46-.27a.09.09 0 01.12 0 .21.21 0 01.05.15v4.44a4.44 4.44 0 01-.41 2 2.89 2.89 0 01-1.15 1.24 1.52 1.52 0 01-.58.21.9.9 0 01-.47-.07.77.77 0 01-.31-.31 1 1 0 01-.13-.47.41.41 0 01.05-.21.31.31 0 01.12-.15l.41-.24a.12.12 0 01.15 0l.11.1a.28.28 0 00.22.14.74.74 0 00.38-.18zm-.74-3.25a4.68 4.68 0 000 .53c0 .4.11.64.25.74a.45.45 0 00.51 0 1.34 1.34 0 00.5-.57 2.19 2.19 0 00.24-.92v-.72a.85.85 0 00-.24-.64.4.4 0 00-.5 0 1.34 1.34 0 00-.51.56 2.55 2.55 0 00-.25 1.02zm2.99-1.46a5.44 5.44 0 01.1-1.06 4.57 4.57 0 01.31-1 4.08 4.08 0 01.47-.82 2.35 2.35 0 01.63-.56 1 1 0 01.62-.16.74.74 0 01.48.24 1.42 1.42 0 01.3.59 3.26 3.26 0 01.11.86v.43a.54.54 0 01-.05.21.24.24 0 01-.12.14l-2.05 1.19a.88.88 0 00.06.35.42.42 0 00.15.19.45.45 0 00.23 0 1 1 0 00.27-.1 1.69 1.69 0 00.32-.25 2.34 2.34 0 00.2-.27 1 1 0 01.11-.17l.12-.09.49-.29a.11.11 0 01.12 0 .17.17 0 010 .15 1.4 1.4 0 01-.09.4 3.14 3.14 0 01-.27.56 3.35 3.35 0 01-.44.59 2.19 2.19 0 01-.6.49 1 1 0 01-.63.18.67.67 0 01-.47-.25 1.43 1.43 0 01-.31-.63 4 4 0 01-.06-.92zm1.51-2.29a1.26 1.26 0 00-.31.25 2.39 2.39 0 00-.21.34 1.55 1.55 0 00-.13.36 2.33 2.33 0 00-.06.33l1.39-.8a1.28 1.28 0 00-.05-.27.49.49 0 00-.11-.23.34.34 0 00-.2-.09.61.61 0 00-.32.11z" fill="#455a64"/><path fill="#e0e0e0" d="M246.07 183.58l99.98-57.72v31.08l-99.98 57.72v-31.08zM211.45 68.42L95.71 135.15a5.77 5.77 0 00-2.6 4.51v257.09a5.72 5.72 0 002.61 4.5l1.63.93a5.76 5.76 0 005.21 0l115.74-66.85a5.76 5.76 0 002.61-4.51v-257a5.72 5.72 0 00-2.62-4.5l-1.62-.93a5.78 5.78 0 00-5.22.03z"/><path d="M220.91 331c0 2.29-1.61 3.75-3.61 4.89l-113.74 65.69c-2 1.15-3.6.22-3.6-2.08V144.71a7.16 7.16 0 013.58-6.21L217.3 72.79a2.41 2.41 0 013.61 2.08z" fill="#fafafa"/><path d="M218.5 73.47a1.4 1.4 0 011.4 1.4V331c0 1.55-1 2.79-3.1 4l-113.74 65.71a2.28 2.28 0 01-1.11.36c-.86 0-1-1-1-1.57V144.71a6.19 6.19 0 013.08-5.34L217.8 73.66a1.37 1.37 0 01.7-.19m0-1a2.43 2.43 0 00-1.2.32L103.54 138.5a7.16 7.16 0 00-3.58 6.21V399.5c0 1.63.81 2.57 2 2.57a3.29 3.29 0 001.61-.49L217.3 335.9c2-1.14 3.61-2.6 3.61-4.89V74.87a2.41 2.41 0 00-2.41-2.4z" fill="#e0e0e0"/><path d="M220.91 73.84v1a2.41 2.41 0 00-3.61-2.08l-113.76 65.75a7.06 7.06 0 00-2.62 2.61v.08l-7-4.06a5.36 5.36 0 011.88-2l115.65-66.72a5.81 5.81 0 015.22 0l1.62.93a5.73 5.73 0 012.62 4.49z" fill="#f0f0f0"/><path d="M122.17 142.14a.32.32 0 010-.17v-.84l-1.31.76c-.08 0-.11 0-.11-.12v-.3a.86.86 0 010-.17.9.9 0 010-.16l1.39-3.81a1.13 1.13 0 01.07-.15.24.24 0 01.09-.08l.18-.11h.12v3.12l.29-.17h.12a.41.41 0 010 .19v.2a.58.58 0 010 .21.28.28 0 01-.12.12l-.29.17v.84a.41.41 0 010 .21.22.22 0 01-.12.13l-.22.13c-.02.02-.06.03-.09 0zm.06-1.78v-2.09l-1 2.64zm1.5.37a2.81 2.81 0 01-.38-1.71 5.41 5.41 0 01.39-2.16 2.6 2.6 0 011.08-1.31 1.46 1.46 0 01.53-.2.56.56 0 01.41.06.08.08 0 010 .07.38.38 0 010 .1l-.12.44a.31.31 0 010 .09h-.06a.74.74 0 00-.67.1 1.9 1.9 0 00-.74.91 4.06 4.06 0 00-.27 1.59 2.27 2.27 0 00.26 1.3c.18.21.42.23.72.05a1.72 1.72 0 00.32-.23 1.66 1.66 0 00.26-.28v-1.37l-.55.32h-.11a.26.26 0 010-.18v-.19a.43.43 0 010-.22.25.25 0 01.11-.12l.88-.5h.13a.47.47 0 010 .22v1.94a.72.72 0 010 .17.24.24 0 010 .13 2.71 2.71 0 01-1 1c-.57.3-.92.25-1.19-.02zM134.8 134a2 2 0 01-.76 1.61c-.42.25-.76-.08-.76-.73a2 2 0 01.76-1.61c.42-.22.76.11.76.73z" fill="#455a64"/><path d="M134 131.38a4.57 4.57 0 00-1.77 2.66c-.07.24 0 .46.08.53.14.09.36-.09.44-.39a3.24 3.24 0 011.25-1.88.81.81 0 011.25.44c.08.2.3.14.44-.12a.77.77 0 00.08-.63 1.14 1.14 0 00-1.77-.61z" fill="#455a64"/><path d="M134 129.5a7.12 7.12 0 00-2.72 3.87c-.09.25-.06.51.06.59.14.09.35-.09.44-.37a5.82 5.82 0 012.22-3.17 1.47 1.47 0 012.22.6c.1.18.3.12.44-.13a.75.75 0 00.06-.66 1.81 1.81 0 00-2.72-.73zm25.85-12.34a.08.08 0 01.1 0 .21.21 0 010 .12v.76a.58.58 0 010 .18.27.27 0 01-.1.11l-.47.27a.07.07 0 01-.09 0 .17.17 0 010-.13v-.76a.35.35 0 010-.17.29.29 0 01.09-.12zm0 2.72a.08.08 0 01.1 0 .17.17 0 010 .12v.76a.47.47 0 010 .17.25.25 0 01-.1.12l-.47.27a.06.06 0 01-.09 0v-.88a.35.35 0 010-.17.24.24 0 01.09-.12zm2.69-.37a.08.08 0 01-.09 0 .17.17 0 010-.13v-.94l-1.56.91a.08.08 0 01-.1 0 .16.16 0 010-.12v-.55a.66.66 0 010-.21c0-.07 0-.14.08-.22l1.54-3.86a.63.63 0 01.21-.31l.38-.22a.08.08 0 01.1 0 .17.17 0 010 .13v3.1l.43-.25a.08.08 0 01.1 0 .15.15 0 010 .12v.55a.33.33 0 010 .17.25.25 0 01-.1.12l-.43.25v.95a.33.33 0 010 .17.25.25 0 01-.1.12zm-.13-2.05v-1.66l-.86 2.16zm-5.04 5.01a.08.08 0 01-.1 0 .22.22 0 010-.13v-.94l-1.56.91a.08.08 0 01-.1 0 .21.21 0 010-.12v-.56a.45.45 0 010-.2 1.87 1.87 0 01.07-.22l1.55-3.86a.57.57 0 01.2-.31l.39-.23a.07.07 0 01.09 0 .17.17 0 010 .13V120l.44-.25a.06.06 0 01.09 0v.67a.33.33 0 010 .17.24.24 0 01-.09.12l-.44.25V122a.35.35 0 010 .17.24.24 0 01-.09.12zm-.14-2v-1.66l-.86 2.16zm7.34-7.36a.35.35 0 010-.17.25.25 0 01.1-.12l1.89-1.09a.09.09 0 01.1 0 .22.22 0 010 .13v.55a.53.53 0 010 .17.25.25 0 01-.1.12l-1.41.82-.06 1a1.23 1.23 0 01.27-.25l.22-.15a1.2 1.2 0 01.52-.18.6.6 0 01.42.1.87.87 0 01.28.4 2.06 2.06 0 01.1.71 3.62 3.62 0 01-.1.91 3.17 3.17 0 01-.29.75 2.21 2.21 0 01-.42.58 2.72 2.72 0 01-.51.4 1.64 1.64 0 01-.6.22.62.62 0 01-.41-.1.77.77 0 01-.25-.35 1.61 1.61 0 01-.09-.52.25.25 0 010-.17.24.24 0 01.09-.12l.41-.24h.09a.15.15 0 01.06.11.55.55 0 00.09.23.29.29 0 00.16.09.33.33 0 00.19 0 1.38 1.38 0 00.22-.1 1.15 1.15 0 00.46-.51 1.61 1.61 0 00.18-.76.54.54 0 00-.18-.48.41.41 0 00-.46 0 1.25 1.25 0 00-.24.18.67.67 0 00-.14.16l-.1.14a.38.38 0 01-.12.1l-.46.27a.08.08 0 01-.1 0v-.12zm-56.9 38.03v-1.62l1.4-.81v1.62l-1.4.81zm2.1-1.21v-3.24l1.4-.81v3.24l-1.4.81zm2.1-1.22v-4.85l1.4-.81v4.85l-1.4.81zm2.1-1.21v-6.47l1.41-.81v6.47l-1.41.81zm98.43-62.08a.37.37 0 00-.52-.17l-5.24 3a2 2 0 00-.6 1.59v2.94a1.67 1.67 0 00.23.94.42.42 0 00.21.19.31.31 0 00.31 0l5.23-3a2 2 0 00.6-1.59v-2.96a1.79 1.79 0 00-.22-.94zm-6 7.93a.83.83 0 01-.09-.43V90a1.57 1.57 0 01.47-1.21l5.23-3a.21.21 0 01.17 0 .17.17 0 01.06.06.79.79 0 01.09.43v2.94a1.57 1.57 0 01-.46 1.21l-5.24 3a.15.15 0 01-.22-.08z" fill="#455a64"/><path d="M207.78 88.71v3.48l-.82.47a.11.11 0 01-.16-.09V90a1.21 1.21 0 01.34-.9zm.38-.21l.98-.57v3.48l-.98.56V88.5zm1.36-.78l.99-.58v3.49l-.99.57v-3.48zm2.35-1.13v2.51a1.3 1.3 0 01-.65 1.12l-.33.19v-3.48l.78-.45a.13.13 0 01.2.11zm.95-.32c.14-.09.26.33.26.93v.55a2.24 2.24 0 01-.26 1.27l-.27.18v-2.78zm-14.73 8.89l5.09-4.52-1.57 6.62-.74-2.75-2.78.65z" fill="#455a64"/><path d="M110.1 158l81.9-47.26c1.36-.78 2.46-.14 2.46 1.42v7.65a5.45 5.45 0 01-2.46 4.26l-81.9 47.28c-1.36.78-2.46.15-2.46-1.42v-7.64a5.42 5.42 0 012.46-4.29z" fill="#407bff"/><path d="M200.64 118.1a.94.94 0 01-.82-.47.93.93 0 01.34-1.29L211 110a1 1 0 011 1.64L201.11 118a.9.9 0 01-.47.1zm0-4.67a.94.94 0 01-.48-1.76l10.84-6.32a.95.95 0 111 1.63l-10.83 6.32a.9.9 0 01-.53.13zm0-4.66a1 1 0 01-.48-1.77l10.84-6.32a1 1 0 011.3.34.94.94 0 01-.34 1.29l-10.83 6.33a1 1 0 01-.49.13z" fill="#e0e0e0"/><path d="M100 344.75v54.85c0 2.21 1.56 3.1 3.46 2l34.31-19.81 3.33-1.92 26.49-15.3c.15-5 .28-9.22.37-12.33.12-3.59.18-5.68.18-5.68z" fill="#455a64"/><path d="M206.5 271.07a27.12 27.12 0 00.58-4.22c.56-6.82 4.09-12.87 7.88-18.41.64-.94 1.3-1.88 2-2.82a13.92 13.92 0 00.92-1.39c.24-.47.46-.85 1.12-.72a1.88 1.88 0 011.1.82 5.56 5.56 0 01.67 4.48 26.65 26.65 0 01-1.63 4.36c-.46 1.11.86.77 1.46.52 2.94-1.23 5.89-5.34 7.74-7.87 1.21-1.66 2.11-3.53 3.57-5a6.26 6.26 0 013.27-1.87c.85-.15 1.68 0 1.77 1.08a4.36 4.36 0 01-.52 1.93c-.52 1.28-1 2.44-.4 3.8a10.81 10.81 0 011 2.57c.17 1.17-.36 2.33-.33 3.51s.63 1.92.76 2.91-.54 2.52-.9 3.5a28.46 28.46 0 01-3.52 6.54 54.31 54.31 0 01-7.63 8.34 14.92 14.92 0 00-4 4.81 31.67 31.67 0 00-1.69 6.08c-.54 2.58-1 5.18-1.57 7.76-5.74 28-8.61 29.55-12.25 33.72-2.2 2.52-8.55 4.9-17.18-4-9.58-9.9-27.9-35.5-27.9-35.5L157 251.79s3.41.92 7.72 2.15c4 1.15 8.26 5.19 11.12 9.71C181.75 273 197 297.34 197 297.34s8.34-22.63 9.5-26.27z" fill="#ffbda7"/><path d="M159.72 252.11c6.32.84 10 2.8 13.73 7.18s18.05 28.28 18.05 28.28-4.88 10.52-18.05 16.07l-16.37-21.46z" fill="#407bff"/><path d="M159.72 252.11c6.32.84 10 2.8 13.73 7.18s18.05 28.28 18.05 28.28-4.88 10.52-18.05 16.07l-16.37-21.46z" opacity=".15"/><path d="M197 297.34a53.79 53.79 0 00-4.33 15.29S190.85 302 195 294.1zm21.61-39.49c.39 3.85-1.2 9.15-2.61 11.15a12.07 12.07 0 003.21-5.3c.69-3.2.19-4.61-.6-5.85z" fill="#f0997a"/><path d="M169.25 352.51c-13.24 9.4-56.59 12.54-69.29 4.14V255.11l1-.2 12.43-2.62 6.73-1.42 1.71-.36 6-1.26 15.64.91 4.71.28h.46s5.44.65 11.09 1.63c.21.19.4.39.61.6 3.92 4.23 7.3 15 8.26 26.53.36 4.39.62 11 .82 18.41v.69c.58 22.7-.17 54.21-.17 54.21z" fill="#407bff"/><path d="M159.09 211.79c2.77-6.36.06-14.8-3.26-18.76-4.79-5.73-12.24-8.2-23.48-7.5-8.55.53-16.95 4.08-18.55 12.85-6.87 2.05-6.09 13.33-4.38 18.31 3.47 10.09 10.29 18.88 10.4 24z" fill="#455a64"/><path d="M159.08 235.54c-1.35 4.88-4.17 8.45-8.68 9.15a37.43 37.43 0 01-7.11 0l.17 6.21c6.07 5.19 3.85 12-.2 18.16-5-5.59-10.78-7.59-15.81-9.8a16.1 16.1 0 01-7.33-7.1l-.64-21s-2.76 3.14-7.31.17a9.92 9.92 0 01-3.08-12.14c2.25-4.76 6.76-2.79 8.15-1.35s3 4.16 4.17 3.78a4.17 4.17 0 002.79-2.85 25.49 25.49 0 001.48-9.22 12.59 12.59 0 003.53-2.72 11.47 11.47 0 003.06-7.06c9.74-3 20.95-1.61 25 1.52 2.33 4.11 2.41 13.65 2.8 19.15.42 6.05.15 11.02-.99 15.1z" fill="#ffbda7"/><path d="M143.28 244.73c-5-.28-15-2.61-17.68-5.39s-3.81-8.48-3.81-8.48.4 7.19 2.47 10.36 7.28 4.56 10.45 5.35a76.62 76.62 0 008.67 1.31z" fill="#f0997a"/><path d="M143.26 269.1c-2.61-1.6-8.37-8.14-11.24-5.1s-4.39 3.87-6.29 3.31-6.06-4.69-8.79-7.7a17.45 17.45 0 01-3.6-7.35 47.47 47.47 0 003.85-5.35c1.3-2.3 1-2.95 2.68-3.06l.15 4.34s1 2.37 5.74 5.57 14.13 7.96 17.5 15.34z" fill="#407bff"/><path d="M143.26 269.1c-2.61-1.6-8.37-8.14-11.24-5.1s-4.39 3.87-6.29 3.31-6.06-4.69-8.79-7.7a17.45 17.45 0 01-3.6-7.35 47.47 47.47 0 003.85-5.35c1.3-2.3 1-2.95 2.68-3.06l.15 4.34s1 2.37 5.74 5.57 14.13 7.96 17.5 15.34z" opacity=".15"/><path d="M143.26 269.1c1.55-1.42 4.08-8 4.75-7.84 1 .29 2.78 4.85 3.64 3.79 1.36-1.68.95-9.36-1.32-12.15s-5.29-5.76-7-6.05l.12 4.09a16.58 16.58 0 011.68 6.6c0 2.33-1.55 9.33-1.87 11.56z" fill="#407bff"/><path d="M143.26 269.1c1.55-1.42 4.08-8 4.75-7.84 1 .29 2.78 4.85 3.64 3.79 1.36-1.68.95-9.36-1.32-12.15s-5.29-5.76-7-6.05l.12 4.09a16.58 16.58 0 011.68 6.6c0 2.33-1.55 9.33-1.87 11.56z" opacity=".15"/><path d="M140.13 217.33a2 2 0 01-2 2.09 2.1 2.1 0 112-2.09z" fill="#263238"/><path d="M137.31 210.88l-4.08 2.76a2.59 2.59 0 01.69-3.51 2.41 2.41 0 013.39.75zm19.56 1.89l-4.48-2.14a2.38 2.38 0 013.24-1.22 2.6 2.6 0 011.24 3.36z" fill="#37474f"/><path d="M155.36 217.2a2 2 0 01-2 2.1 2.1 2.1 0 112-2.1z" fill="#263238"/><path fill="#f0997a" d="M144.76 212.99l1.46 14.5 7.78-2.35-9.24-12.15z"/><path d="M140.12 230.86l8.34 1.85a4.2 4.2 0 01-5 3.39 4.48 4.48 0 01-3.34-5.24z" fill="#b16668"/><path d="M143.46 236.1c.17 0 .34 0 .52.06a3.89 3.89 0 00-3.88-3.79 4.43 4.43 0 003.36 3.73z" fill="#f28f8f"/><path d="M103 288.1l-3 7.38v-40.37s8.62 16.58 3 32.99z" fill="#407bff"/><path d="M103 288.1l-3 7.38v-40.37s8.62 16.58 3 32.99z" opacity=".15"/><path d="M160.27 224.73a24.92 24.92 0 015.4 2.51 4.76 4.76 0 011.66 6.46l-2.06-.4s1.06-2.41-.18-3.71-4.85-2.4-4.85-2.4z" fill="#263238"/><path d="M166.47 232.37c-1.67-.81-2.47.23-3.65 3.06s-.37 3.61 1.06 4.17 2.54-.38 3.42-2.72c.99-2.64.97-3.64-.83-4.51z" fill="#407bff"/><path d="M166.47 232.37c-1.67-.81-2.47.23-3.65 3.06s-.37 3.61 1.06 4.17 2.54-.38 3.42-2.72c.99-2.64.97-3.64-.83-4.51z" opacity=".1"/><path d="M118.09 189c-5 4.61-9.77 11.16-6.22 26.31a8.25 8.25 0 00-2.07 8.55c1.38 4.68 5.87 7.75 10 6.87s6.44-5.39 5.07-10.07c-1-3.5-4.78-6.89-7.87-6.66 0 0-3-6.49-.19-15.66 3.79-12.52 18.37-13.55 24.79-12.54-2.12-3.05-16.93-2.87-23.51 3.2z" fill="#263238"/><path d="M125.8 220.47c-1.52-5.19-6.5-8.6-11.12-7.62a7.24 7.24 0 00-2 .75c-.51.28-2.09 1.37-2.4 1.57-2.94 2-4.3 6-3.09 10.1 1.52 5.19 6.49 8.6 11.11 7.62a7.33 7.33 0 002.39-1c.37-.24 1.84-1.22 2.21-1.48 2.8-1.96 4.1-5.89 2.9-9.94z" fill="#407bff"/><path d="M125.8 220.47c-1.52-5.19-6.5-8.6-11.12-7.62a7.24 7.24 0 00-2 .75c-.51.28-2.09 1.37-2.4 1.57-2.94 2-4.3 6-3.09 10.1 1.52 5.19 6.49 8.6 11.11 7.62a7.33 7.33 0 002.39-1c.37-.24 1.84-1.22 2.21-1.48 2.8-1.96 4.1-5.89 2.9-9.94z" opacity=".3"/><path d="M123.91 221.73c-1.52-5.18-6.5-8.59-11.12-7.61s-7.13 6-5.61 11.15 6.49 8.6 11.11 7.62 7.14-5.97 5.62-11.16z" fill="#407bff"/><path d="M123.91 221.73c-1.52-5.18-6.5-8.59-11.12-7.61s-7.13 6-5.61 11.15 6.49 8.6 11.11 7.62 7.14-5.97 5.62-11.16z" opacity=".1"/><path d="M119.49 222.67c-.72-2.45-3.06-4.06-5.24-3.6s-3.37 2.82-2.65 5.27 3.06 4 5.24 3.59 3.37-2.82 2.65-5.26z" fill="#37474f"/><path d="M177.27 165.06a2.1 2.1 0 00-.58.48 2.79 2.79 0 00-.38.62 3.81 3.81 0 00-.22.7c0 .24-.08.49-.1.74s0 .34 0 .58v2.04a3.74 3.74 0 00.1.64 1.21 1.21 0 00.22.44.55.55 0 00.39.18 1 1 0 00.57-.18 2.54 2.54 0 00.5-.38 2.63 2.63 0 00.4-.53 2.85 2.85 0 00.28-.69 3.76 3.76 0 00.1-.86l-.85.49a.15.15 0 01-.2 0 .34.34 0 01-.08-.25v-1.65a.89.89 0 01.08-.35.51.51 0 01.2-.23l2.45-1.42a.15.15 0 01.19 0 .34.34 0 01.08.25v2a7.81 7.81 0 01-.24 1.94 8 8 0 01-.67 1.73 6.76 6.76 0 01-1 1.43 5.1 5.1 0 01-1.24 1 2.69 2.69 0 01-1.3.42 1.47 1.47 0 01-1-.35 2.13 2.13 0 01-.62-1 5.1 5.1 0 01-.25-1.49v-2.77a7.84 7.84 0 01.24-1.77 8.33 8.33 0 01.63-1.71 7 7 0 011-1.48 5.21 5.21 0 011.31-1.09 2.64 2.64 0 011.28-.41 1.57 1.57 0 011 .25 1.82 1.82 0 01.62.72 2.31 2.31 0 01.24 1 .48.48 0 01-.06.28.48.48 0 01-.16.2l-1.35.77q-.15.09-.24 0l-.16-.18a.81.81 0 00-.39-.29c-.21-.08-.46-.01-.79.18zm5.73 2.09a1.28 1.28 0 00.08.54.5.5 0 00.22.25.41.41 0 00.29 0 1 1 0 00.32-.12 2.16 2.16 0 00.48-.37 1.9 1.9 0 00.3-.44 1.86 1.86 0 01.16-.27.41.41 0 01.17-.14l1.32-.76c.15-.09.22 0 .22.21a2.53 2.53 0 01-.15.66 6.6 6.6 0 01-1.3 2.22 4.63 4.63 0 01-1.2 1 2.37 2.37 0 01-1.17.39 1.13 1.13 0 01-.86-.34 2.14 2.14 0 01-.53-1 6.52 6.52 0 01-.18-1.66 8.81 8.81 0 01.18-1.78 7.32 7.32 0 01.53-1.64 6.21 6.21 0 01.86-1.37 4.27 4.27 0 011.17-1 2.05 2.05 0 011.26-.35 1.32 1.32 0 01.85.5 2.74 2.74 0 01.48 1.09 7.27 7.27 0 01.14 1.42v.44a.68.68 0 01-.08.34.48.48 0 01-.19.24zm.91-3.52a1.53 1.53 0 00-.65.76 3.06 3.06 0 00-.26 1l1.82-1.06a1.37 1.37 0 00-.26-.72c-.12-.14-.34-.15-.62.02zm6.09-.5a.86.86 0 00.11.5c.06.09.18.09.33 0l.81-.47a.15.15 0 01.19 0 .3.3 0 01.08.25V165a.74.74 0 01-.08.35.5.5 0 01-.19.23l-1 .56a2 2 0 01-.87.29.91.91 0 01-.66-.23 1.66 1.66 0 01-.43-.72 4.08 4.08 0 01-.15-1.2v-2.62l-.75.43a.14.14 0 01-.19 0 .34.34 0 01-.08-.25v-1.57a.89.89 0 01.08-.35.5.5 0 01.19-.23l.75-.44v-2.55a.84.84 0 01.08-.34.61.61 0 01.19-.24l1.28-.73a.14.14 0 01.19 0 .3.3 0 01.08.25v2.54l1.15-.66a.15.15 0 01.19 0 .33.33 0 01.08.25v1.58a.71.71 0 01-.08.34.53.53 0 01-.19.24l-1.15.66zm6.33-9.89a.89.89 0 01-.08.35.51.51 0 01-.2.23l-1.27.74a.16.16 0 01-.2 0 .37.37 0 01-.08-.25v-1.58a.84.84 0 01.08-.34.55.55 0 01.2-.24l1.27-.73a.15.15 0 01.2 0 .34.34 0 01.08.25zm0 9a.89.89 0 01-.08.35.51.51 0 01-.2.23l-1.27.74a.16.16 0 01-.2 0 .37.37 0 01-.08-.25V156a.89.89 0 01.08-.35.51.51 0 01.2-.23l1.27-.74a.16.16 0 01.2 0 .37.37 0 01.08.25zm6.57-3.82a.71.71 0 01-.08.34.6.6 0 01-.19.24l-1.28.73a.14.14 0 01-.19 0 .3.3 0 01-.08-.25v-3.95a1.65 1.65 0 00-.21-1c-.15-.19-.37-.2-.67 0a1.54 1.54 0 00-.67.79 3.21 3.21 0 00-.2 1.2v3.94a.76.76 0 01-.09.35.45.45 0 01-.19.23l-1.27.74a.15.15 0 01-.2 0 .34.34 0 01-.08-.25v-7.26a.89.89 0 01.08-.35.51.51 0 01.2-.23L199 153h.19a.33.33 0 01.09.25v.36c.05-.13.12-.28.2-.44a4.09 4.09 0 01.29-.48 5.39 5.39 0 01.4-.45 3.16 3.16 0 01.53-.39 2 2 0 01.9-.3.87.87 0 01.69.24 1.89 1.89 0 01.45.85 5.58 5.58 0 01.16 1.5zM175 187.55a.87.87 0 00.1.5c.07.09.18.09.34 0l.81-.47a.15.15 0 01.19 0 .37.37 0 01.08.25v1.58a.84.84 0 01-.08.34.48.48 0 01-.19.24l-1 .55a1.69 1.69 0 01-.86.29.9.9 0 01-.66-.22 1.49 1.49 0 01-.43-.72 4.08 4.08 0 01-.15-1.2v-2.62l-.75.43h-.19a.33.33 0 01-.09-.25v-1.58a.72.72 0 01.09-.34.48.48 0 01.19-.24l.75-.43v-2.54a.74.74 0 01.08-.35.5.5 0 01.19-.23l1.28-.74a.14.14 0 01.19 0 .33.33 0 01.08.24v2.55l1.15-.66a.14.14 0 01.19 0 .36.36 0 01.08.25v1.57a.89.89 0 01-.08.35.57.57 0 01-.19.23L175 185zm7.65-5.91v1.2a6.89 6.89 0 01-.22 1.54 7.35 7.35 0 01-.56 1.46 5.91 5.91 0 01-.86 1.27 4.43 4.43 0 01-1.11.93 2.31 2.31 0 01-1.13.36 1.22 1.22 0 01-.85-.28 1.87 1.87 0 01-.56-.82 4 4 0 01-.22-1.28v-1.2a6.7 6.7 0 01.21-1.52 7.21 7.21 0 01.56-1.47 6.37 6.37 0 01.86-1.28 4.36 4.36 0 011.13-.94 2.33 2.33 0 011.11-.35 1.35 1.35 0 01.87.28 1.85 1.85 0 01.55.82 4 4 0 01.22 1.28zm-3.65 3.25a1 1 0 00.28.77c.17.13.38.12.66 0a1.8 1.8 0 00.65-.71 2.74 2.74 0 00.28-1.09v-1.06a1 1 0 00-.28-.77.56.56 0 00-.65 0 1.75 1.75 0 00-.66.71 2.74 2.74 0 00-.28 1.09v1.06zm4.55-6.81a.84.84 0 01.08-.34.49.49 0 01.2-.24l1.27-.74a.15.15 0 01.19 0 .3.3 0 01.09.25V181a1.84 1.84 0 00.19 1c.13.19.34.21.64 0a1.49 1.49 0 00.63-.78A3.52 3.52 0 00187 180v-4a.73.73 0 01.08-.34.6.6 0 01.19-.24l1.28-.73a.14.14 0 01.19 0 .36.36 0 01.08.25v7.27a.84.84 0 01-.08.34.48.48 0 01-.19.24l-1.18.68a.14.14 0 01-.19 0 .34.34 0 01-.08-.25v-.35c-.06.14-.12.29-.2.44a3 3 0 01-.29.47 4 4 0 01-.4.45 3.44 3.44 0 01-.54.4c-.65.37-1.18.39-1.56 0a3.27 3.27 0 01-.59-2.36zm8.09-1.58a4.79 4.79 0 000 .56 4.19 4.19 0 000 .53 1 1 0 00.27.75c.16.14.38.12.65 0a1.62 1.62 0 00.51-.45 2.25 2.25 0 00.29-.58 1.39 1.39 0 01.12-.28.48.48 0 01.17-.2L195 176a.15.15 0 01.2 0 .27.27 0 01.07.25 4.58 4.58 0 01-.13.81 5.77 5.77 0 01-.42 1.2 6.85 6.85 0 01-.82 1.3 4.67 4.67 0 01-1.32 1.12 2.57 2.57 0 01-1.06.36 1.33 1.33 0 01-.86-.22 1.75 1.75 0 01-.59-.79 4.2 4.2 0 01-.24-1.36v-1.24a7.37 7.37 0 01.24-1.63 6.84 6.84 0 01.59-1.47 6.06 6.06 0 01.86-1.22 4.71 4.71 0 011.06-.86 2.35 2.35 0 011.32-.41 1.38 1.38 0 01.82.36 1.6 1.6 0 01.42.71 2.52 2.52 0 01.13.66.61.61 0 01-.07.34.71.71 0 01-.2.24l-1.33.76h-.17a.44.44 0 01-.12-.15.5.5 0 00-.29-.25.75.75 0 00-.51.15 1.69 1.69 0 00-.65.72 2.68 2.68 0 00-.29 1.12zm9.88-1.5a.74.74 0 01-.08.35.45.45 0 01-.19.23l-1.27.74a.16.16 0 01-.2 0 .38.38 0 01-.08-.26v-3.94a1.6 1.6 0 00-.21-1c-.14-.19-.37-.2-.67 0a1.46 1.46 0 00-.66.78 3.25 3.25 0 00-.21 1.2v3.9a.88.88 0 01-.08.34.61.61 0 01-.2.24l-1.27.73a.14.14 0 01-.19 0 .32.32 0 01-.08-.25v-10.2a.74.74 0 01.08-.35.45.45 0 01.19-.23l1.27-.74a.16.16 0 01.2 0 .37.37 0 01.08.25v3.33a4.31 4.31 0 01.54-.95 2.58 2.58 0 01.84-.78 2.07 2.07 0 01.89-.31.91.91 0 01.69.25 1.75 1.75 0 01.45.85 5.55 5.55 0 01.16 1.49zm2.98-5.1a.71.71 0 01-.08.34.48.48 0 01-.19.24l-1.28.73a.14.14 0 01-.19 0 .36.36 0 01-.08-.25v-6.72a.81.81 0 01.08-.34.54.54 0 01.19-.24l1.28-.74a.14.14 0 01.19 0 .3.3 0 01.08.25zm0 3.35a.74.74 0 01-.08.35.5.5 0 01-.19.23l-1.28.74a.15.15 0 01-.19 0 .37.37 0 01-.08-.25v-1.58a.81.81 0 01.08-.34.54.54 0 01.19-.24l1.28-.74a.15.15 0 01.19 0 .3.3 0 01.08.25z" fill="#455a64"/><path d="M170.19 209.39a1.3 1.3 0 01-.92-2.21c1.86-1.9 3-4.57 3.54-8.15-6.26-1.28-10-6.71-10-14.59 0-14 11.37-31.89 25.35-40 7.44-4.29 14.53-5.13 19.45-2.29 4.08 2.35 6.32 7.05 6.32 13.22 0 14-11.37 31.88-25.35 40a33.15 33.15 0 01-5.82 2.69c-3.34 7.44-8.49 10.25-12.24 11.29a1.06 1.06 0 01-.33.04zm18.41-64.17c-13.74 7.93-24.92 25.53-24.92 39.22 0 7.72 3.53 12.76 9.68 13.83l.4.07v.4c-.52 4-1.77 6.93-3.84 9a.46.46 0 00.45.76c3.59-1 8.55-3.72 11.76-11l.08-.17.18-.06a33.18 33.18 0 005.84-2.68c13.74-7.94 24.92-25.53 24.92-39.22 0-5.86-2.09-10.29-5.89-12.49-4.65-2.68-11.43-1.84-18.61 2.3z" fill="#407bff"/><path d="M323 396.53a7.81 7.81 0 00-.1 4.11c.39.82 2.85 3.54 7.87 4.52s11.93 0 14.9-.18 12.3 1 15.26 1.36c4.66.63 8.25-.39 10-2.08a3.1 3.1 0 00.7-2.45 12.45 12.45 0 00-.5-3.32z" fill="#263238"/><path d="M370.37 393.61c.09.39.17.77.25 1.17a19.54 19.54 0 01.43 6.05c-.6 1.47-2.25 2.28-3.58 2.7-3.5 1.12-6.18.94-10.07.2a71.19 71.19 0 00-11.81-.72c-3.06.2-7.27.79-10.33.51a24.85 24.85 0 01-7.61-1.55c-2-.88-4.13-2-4.62-4.1-.61-4.42 1.25-6.38 3.35-7.61s5.08-1.14 8.27-1.36c2.88-.19 5-.19 7.55-.39a36.67 36.67 0 006.6-.92c1.93-.61 3.92-3.07 4.74-3.16 0 0 12.84-.1 14.07 0 1.41.12 1.85 4.51 2 5.46.14.75.16 1.55.36 2.27.16.48.28.96.4 1.45z" fill="#37474f"/><path d="M330.79 402.93c-.4-3.19-.93-10.1 4.94-14.09h.75a14.61 14.61 0 00-8.12 0c-4.7 1.25-6.78 5.05-5.61 9.06 0-.04 1.05 3.84 8.04 5.03zm17.14-15.1c-1.9 1.68-2.56 5.51-2.56 5.51-.24 1.43-2.84 1.64-2.59.26a15 15 0 012.24-5.33 4.4 4.4 0 012.91-.44zm-5.32.65a9.25 9.25 0 00-2.67 5.22c-.26 1.37-2.43 1.35-2.28 0 0 0 .26-3.39 2.28-5a2.89 2.89 0 012.67-.22z" fill="#fafafa"/><path d="M376.26 355.59c-.19 2.25-.49 4.28.43 6.76 1.32 3.57 4.12 5.2 5.76 6.6a47.91 47.91 0 014.78 5.51c1.61 2 2 3.14 4.46 5.28a8.73 8.73 0 008.59 1.21c2.1-.89 2.82-1.6 2.69-4.82s-10.37-4.31-10.37-4.31z" fill="#263238"/><path d="M401.65 366.55c.87.31 1.09 1.9 1.23 5 .1 2.39 1.15 5.87-2.3 7.37-2.78 1.22-7.23.41-9.11-1.83-2.35-2.81-3.93-5.27-7.28-8.69-2.91-3-5.93-4-7.22-9.9-.83-3.81-.18-5.39 2.52-6.48 3.7-1.5 9.53 3.41 12.44 4.18 2.5.71 8.85 10.03 9.72 10.35z" fill="#37474f"/><path d="M391.93 356.24c-.16 0-.33-.1-.5-.16a9.56 9.56 0 00-8 5c-.49 1 1 1.85 1.94 1 2.07-3.91 6.33-4.78 8-5a4.35 4.35 0 00-1.44-.84z" fill="#fafafa"/><path d="M394.32 358a9.45 9.45 0 00-7.46 5c-.49 1 1 1.85 1.94 1a9.73 9.73 0 016.69-4.75c-.4-.41-.79-.84-1.17-1.25zm-15.65 4.93s.29-7.06 10.32-8l.57.31a8.54 8.54 0 00-4.93-3.62c-3.33-.86-6 0-7.72 2.11s.03 7.82 1.76 9.2z" fill="#fafafa"/><path d="M405.07 316.62c-1-11-1.07-18.31-1.07-18.31s0-16 .4-31.11c.22-8.4.07-14.1.21-20.74a106 106 0 00-1.75-22s-51.46-10.24-52.1 8.64c-.77 22.63-.68 61.31-1.55 76.09-.49 8.3.35 15.17.87 31.29.43 13.36.3 46.26.3 46.26 5.67 7.78 19.05 1.85 19.05 1.85s4.14-46.18 4.74-55.73c.65-10.26-.43-15.46-.43-15.46l5.31-47.81s.4 15.34.86 23.64 1.14 14.77 3.09 30.19c2 16.15 5.28 45.41 5.28 45.41 6.86 4.08 14.85.81 14.85.81s2.98-41.36 1.94-53.02z" fill="#407bff"/><path d="M405.07 316.62c-1-11-1.07-18.31-1.07-18.31s0-16 .4-31.11c.22-8.4.07-14.1.21-20.74a106 106 0 00-1.75-22s-51.46-10.24-52.1 8.64c-.77 22.63-.68 61.31-1.55 76.09-.49 8.3.35 15.17.87 31.29.43 13.36.3 46.26.3 46.26 5.67 7.78 19.05 1.85 19.05 1.85s4.14-46.18 4.74-55.73c.65-10.26-.43-15.46-.43-15.46l5.31-47.81s.4 15.34.86 23.64 1.14 14.77 3.09 30.19c2 16.15 5.28 45.41 5.28 45.41 6.86 4.08 14.85.81 14.85.81s2.98-41.36 1.94-53.02z" opacity=".4"/><path d="M398 250.57s-2.1 7.69-14.85 12.85c0 0-3.46 27.84-3.43 27.26l-.68-21.08 1.16-8.84s11.96-2.53 17.8-10.19z" opacity=".25"/><path d="M397.09 156.81c5.14 0 9.77 1.52 13.87 14.29s7.64 29.47 8 33.6c.44 5.36.16 7.67-4 11.56s-15 13.13-15 13.13l-3.6-15.29 8.34-9.4z" fill="#407bff"/><path d="M397.09 156.81c5.14 0 9.77 1.52 13.87 14.29s7.64 29.47 8 33.6c.44 5.36.16 7.67-4 11.56s-15 13.13-15 13.13l-3.6-15.29 8.34-9.4z" fill="#fff" opacity=".6"/><path fill="#b16668" d="M371.15 152.21l2.01 17.81 16.56-3.76-2.14-23.79-16.43 9.74z"/><path d="M358.7 130.39s-4.42 6.71-3.92 7.36 3.76 1.26 3.76 1.26z" fill="#9a4a4d"/><path d="M360.66 134.35a5 5 0 115-5 5 5 0 01-5 5zm0-8.89a3.89 3.89 0 103.89 3.89 3.9 3.9 0 00-3.89-3.89z" fill="#263238"/><path d="M371 112.77c-8.5 1.79-11.55 5.19-12.35 18.69-.84 14.11 1.2 18.88 3.05 20.78 1.25 1.29 8.2 1.52 11.71.55 4.39-1.21 14.31-4.73 19-11.82 5.47-8.35 6.9-19.67 1.05-24.31-8.31-6.54-19.04-4.66-22.46-3.89z" fill="#b16668"/><path d="M371.26 153.19l-.4-2.6a16.83 16.83 0 01-8.71 2c1.62.77 5.85 1 9.11.6z" fill="#9a4a4d"/><path fill="#263238" d="M356.51 128.44l15.12 1.96-.61 1.06-14.51-1.88v-1.14z"/><path d="M357.75 118.22a4.21 4.21 0 001.92-.12 3 3 0 001 3.54 4.27 4.27 0 003.81.51 3.71 3.71 0 00-.42 2.63 4.25 4.25 0 004.4 3.17c.09 2 .12 3.91 2.23 4.81 0 0 1.34-5.22 5.74-4.56s5 6.3 2.23 9.73-5.35 2.13-5.39 2.11a9.15 9.15 0 00.7 2.49 10.15 10.15 0 003.72 4.1 20.07 20.07 0 0010.59 2.87c1.38-4 3.65-7 6.05-10.5 1.89-2.74 4.29-5.86 5.24-9.05a17.86 17.86 0 00.11-10.63c-1.05-3.16-2.28-5.56-5.72-6.41-.78-4.23-5-6.46-8.84-8.4a14.22 14.22 0 00-12.44-.1c-1.42-1.5-2.54-3.3-4.51-4.17a4.1 4.1 0 00-4.82.86 6.1 6.1 0 00-.76 4.05 9.49 9.49 0 00-4.85.42 5 5 0 00-3.12 3.53 3.46 3.46 0 002.17 3.92 3 3 0 00-1.1 3.44 2.59 2.59 0 002.06 1.76z" fill="#263238"/><path d="M370.64 135.73l.15-5.9a3 3 0 10-.15 5.9z" fill="#263238"/><path d="M405.37 164.91c-1.79-4.57-5.66-8.51-11.93-8.7h-4.59c-.71 2.91-11.75 3.85-17 2-2.29.6-13.41 3.5-15.32 4.14-5.46 1.81-5.53 8.77-5.5 24.93 0 15.06 0 32.94-.82 51.79 9.6 5.06 23.54 6.36 34.1 5.29 16.58-1.67 20.57-6.63 20.57-6.63a237.34 237.34 0 01-.6-26.09c.2-7.24 1.73-16.09 2.27-23.92s.5-18.54-1.18-22.81z" fill="#407bff"/><path d="M405.37 164.91c-1.79-4.57-5.66-8.51-11.93-8.7h-4.59c-.71 2.91-11.75 3.85-17 2-2.29.6-13.41 3.5-15.32 4.14-5.46 1.81-5.53 8.77-5.5 24.93 0 15.06 0 32.94-.82 51.79 9.6 5.06 23.54 6.36 34.1 5.29 16.58-1.67 20.57-6.63 20.57-6.63a237.34 237.34 0 01-.6-26.09c.2-7.24 1.73-16.09 2.27-23.92s.5-18.54-1.18-22.81z" fill="#fff" opacity=".3"/><path d="M298.85 141.51c-.93-2.12.13-5.58.53-7.13.66-2.56.27-6.09.43-7.12.39-2.64-1.38-3.17-2.69-1.41-1.19 1.59-1.19 5.07-2.08 5.29s-3.45-6.57-4.79-10.53-1.68-6.49-3.88-6c-1.59.36-1.51 2.41-.73 5.66a34.68 34.68 0 011 4.27c0 .54-.79.62-1.15.74-.68.24-1.85.6-2.2 1.26a5.91 5.91 0 01-.54 1.1c-.58.73-1.77.7-2.39 1.39-.46.5-.5 1.25-.87 1.82-.24.36-.61.63-.84 1a3 3 0 00-.07 2.48 20.79 20.79 0 004.18 7c1.5 1.89 3.86 4.95 4.72 6.3 2.86 4.48 13.41 21.61 18.62 28.35 1.11 1.43 2.1 2.75 4.48 3.39 6 1.6 42.6 4.77 42.6 4.77 10.6.22 14.29-19.1 5.25-20.06 0 0-7.34-.18-16.13-.25-9.4-.09-25.15-.49-25.15-.49s-17.56-20.15-18.3-21.83z" fill="#b16668"/><path d="M359 162.44c-5.43-.21-41.23.09-41.23.09l-14.9-15.88a14.52 14.52 0 01-10.8 8.3s6.48 11.82 10.2 17.25c3.42 5 4.24 7.55 9.54 8.58s38.87 4.88 41.78 4.78 7.68-.61 10.7-9.1c2.63-7.46.21-13.8-5.29-14.02z" fill="#407bff"/><path d="M359 162.44c-5.43-.21-41.23.09-41.23.09l-14.9-15.88a14.52 14.52 0 01-10.8 8.3s6.48 11.82 10.2 17.25c3.42 5 4.24 7.55 9.54 8.58s38.87 4.88 41.78 4.78 7.68-.61 10.7-9.1c2.63-7.46.21-13.8-5.29-14.02z" fill="#fff" opacity=".6"/></svg>